<svg width="49" height="46" viewBox="0 0 49 46" fill="none" xmlns="http://www.w3.org/2000/svg">
<path fill-rule="evenodd" clip-rule="evenodd" d="M24.6051 30.2003C5.09711 30.2003 1.64511 21.5283 1.50591 21.1603C1.19663 20.3323 1.61712 19.4104 2.44511 19.1011C3.27309 18.7918 4.19503 19.2123 4.50431 20.0403C4.52511 20.0867 7.5787 27.0003 24.6051 27.0003C41.6315 27.0003 44.6851 20.0859 44.7163 20.0163C45.0482 19.2055 45.9677 18.8091 46.7851 19.1243C47.5977 19.4363 48.0077 20.3444 47.7043 21.1603C47.5651 21.5283 44.1131 30.2003 24.6051 30.2003Z" fill="#FFB0D3"/>
<path fill-rule="evenodd" clip-rule="evenodd" d="M46.7853 19.1247C46.1576 18.8828 45.4457 19.0593 45.0037 19.5663C45.3912 20.0006 45.507 20.6135 45.3045 21.1591C45.1701 21.5207 41.8469 29.8335 23.4053 30.1839C23.8053 30.1911 24.1949 30.2007 24.6053 30.2007C44.1133 30.1999 47.5653 21.5279 47.7045 21.1599C48.0074 20.3443 47.5975 19.4367 46.7853 19.1247Z" fill="#790F3E"/>
<path fill-rule="evenodd" clip-rule="evenodd" d="M46.2053 44.5999H3.00527C2.12162 44.5999 1.40527 43.8836 1.40527 42.9999C1.40527 42.1162 2.12162 41.3999 3.00527 41.3999H46.2053C47.0889 41.3999 47.8053 42.1162 47.8053 42.9999C47.8053 43.8836 47.0889 44.5999 46.2053 44.5999Z" fill="#FFB0D3"/>
<path fill-rule="evenodd" clip-rule="evenodd" d="M46.2047 41.3999H43.8047C44.6883 41.3999 45.4047 42.1162 45.4047 42.9999C45.4047 43.8836 44.6883 44.5999 43.8047 44.5999H46.2047C47.0883 44.5999 47.8047 43.8836 47.8047 42.9999C47.8047 42.1162 47.0883 41.3999 46.2047 41.3999Z" fill="#790F3E"/>
<path d="M24.6053 23.7999C30.7909 23.7999 35.8053 18.7855 35.8053 12.5999C35.8053 6.41431 30.7909 1.3999 24.6053 1.3999C18.4197 1.3999 13.4053 6.41431 13.4053 12.5999C13.4053 18.7855 18.4197 23.7999 24.6053 23.7999Z" fill="#FFF1F7"/>
<path fill-rule="evenodd" clip-rule="evenodd" d="M24.6053 1.39992C24.2044 1.40059 23.8038 1.42275 23.4053 1.46632C29.0857 2.08762 33.3875 6.88563 33.3875 12.5999C33.3875 18.3142 29.0857 23.1122 23.4053 23.7335C27.5298 24.1846 31.5658 22.3185 33.8938 18.8841C36.2218 15.4496 36.4604 11.0095 34.5138 7.34533C32.5672 3.68117 28.7544 1.39338 24.6053 1.39992Z" fill="#FF90C1"/>
<path fill-rule="evenodd" clip-rule="evenodd" d="M24.6047 37.4002C7.45425 37.4002 2.57345 34.2594 2.07345 33.901C1.59739 33.5727 1.33555 33.013 1.3886 32.4371C1.44165 31.8613 1.80132 31.3588 2.32935 31.123C2.85738 30.8872 3.47158 30.9546 3.93585 31.2994C3.95425 31.3106 8.51905 34.2002 24.6047 34.2002C40.6903 34.2002 45.2543 31.3106 45.2983 31.2818C46.0276 30.7979 47.0098 30.9843 47.5111 31.7018C48.0092 32.414 47.8419 33.3943 47.1359 33.901C46.6359 34.2594 41.7543 37.4002 24.6047 37.4002Z" fill="#FFB0D3"/>
<path fill-rule="evenodd" clip-rule="evenodd" d="M47.5117 31.7017C47.0104 30.9841 46.0282 30.7977 45.2989 31.2817C45.1776 31.3549 45.0523 31.4214 44.9237 31.4809C44.993 31.5485 45.056 31.6224 45.1117 31.7017C45.6098 32.4138 45.4425 33.3942 44.7365 33.9009C44.2485 34.2505 39.5789 37.2505 23.4053 37.3929C23.8005 37.3969 24.1965 37.4001 24.6053 37.4001C41.7549 37.4001 46.6365 34.2593 47.1365 33.9009C47.8425 33.3942 48.0098 32.4138 47.5117 31.7017Z" fill="#790F3E"/>
<path fill-rule="evenodd" clip-rule="evenodd" d="M2.07363 33.901C2.56163 34.2506 7.23123 37.2506 23.4056 37.393C23.3256 37.393 24.1776 37.4002 24.6056 37.4002C25.0144 37.4002 25.4104 37.4002 25.8056 37.393C9.63203 37.2506 4.96243 34.2506 4.47443 33.901C4.08611 33.6339 3.83824 33.2065 3.79918 32.7368C3.76011 32.2671 3.93398 31.8046 4.27283 31.477C4.16083 31.4178 4.03843 31.361 3.93683 31.2994C3.47256 30.9546 2.85836 30.8872 2.33033 31.123C1.80229 31.3588 1.44262 31.8613 1.38958 32.4371C1.33653 33.013 1.59756 33.5727 2.07363 33.901Z" fill="#FCFCFD"/>
<path fill-rule="evenodd" clip-rule="evenodd" d="M2.44495 19.1018C1.61724 19.4109 1.19678 20.3324 1.50575 21.1602C1.64015 21.5218 4.96335 29.8346 23.405 30.185C23.3249 30.185 24.2337 30.2018 24.6049 30.2018C25.0154 30.2018 25.4049 30.1922 25.805 30.185C7.36335 29.8338 4.04015 21.521 3.90575 21.1602C3.70208 20.6097 3.81767 19.9918 4.20655 19.5522C3.77089 19.0491 3.0686 18.8695 2.44495 19.1018Z" fill="#FCFCFD"/>
<path fill-rule="evenodd" clip-rule="evenodd" d="M25.8055 1.46651C21.5375 0.999691 17.3782 3.01381 15.0979 6.65165C12.8176 10.2895 12.8176 14.9107 15.0979 18.5486C17.3782 22.1864 21.5375 24.2005 25.8055 23.7337C20.1251 23.1124 15.8232 18.3144 15.8232 12.6001C15.8232 6.88583 20.1251 2.08782 25.8055 1.46651Z" fill="#FCFCFD"/>
<path fill-rule="evenodd" clip-rule="evenodd" d="M3.00527 44.5999H5.40527C4.52162 44.5999 3.80527 43.8836 3.80527 42.9999C3.80527 42.1162 4.52162 41.3999 5.40527 41.3999H3.00527C2.12162 41.3999 1.40527 42.1162 1.40527 42.9999C1.40527 43.8836 2.12162 44.5999 3.00527 44.5999Z" fill="#FCFCFD"/>
<path fill-rule="evenodd" clip-rule="evenodd" d="M14.5199 6.1123L15.8647 6.9795C15.3279 7.81285 14.9128 8.71851 14.6319 9.66911C14.3617 10.6232 14.2183 11.6088 14.2055 12.6003H12.6055C12.6186 11.4563 12.7837 10.3191 13.0967 9.2187C13.4209 8.12082 13.9001 7.07481 14.5199 6.1123Z" fill="#FCFCFD"/>
<path d="M47.0787 18.3808C45.8611 17.9077 44.4882 18.491 43.9835 19.696C43.9539 19.7608 40.8515 26.2 24.6051 26.2C8.38834 26.2 5.26514 19.7824 5.25474 19.7624C4.95535 18.9587 4.24993 18.3757 3.40421 18.2332C2.55849 18.0906 1.70094 18.41 1.15461 19.0712C0.608274 19.7323 0.456149 20.6347 0.755538 21.4384C0.901938 21.8288 4.54914 31 24.6051 31C44.6611 31 48.3083 21.8288 48.4547 21.4384C48.9161 20.2142 48.301 18.8473 47.0787 18.3808ZM46.9547 20.88C46.8251 21.228 43.5651 29.4 24.6051 29.4C5.64514 29.4 2.38514 21.228 2.25554 20.88C2.18127 20.6811 2.18911 20.4608 2.27734 20.2677C2.36557 20.0746 2.52695 19.9244 2.72594 19.8504C2.8153 19.8172 2.90983 19.8002 3.00514 19.8C3.11951 19.7999 3.23253 19.8248 3.33634 19.8728C3.53934 19.9675 3.69503 20.1408 3.76754 20.3528C3.89714 20.6584 7.13154 27.8 24.6051 27.8C42.1451 27.8 45.3251 20.6288 45.4555 20.3216C45.6215 19.9152 46.0806 19.7146 46.4915 19.8688C46.8981 20.0208 47.1052 20.4729 46.9547 20.88Z" fill="#790F3E"/>
<path d="M46.2055 40.6001H3.00547C1.67999 40.6001 0.605469 41.6746 0.605469 43.0001C0.605469 44.3256 1.67999 45.4001 3.00547 45.4001H46.2055C47.531 45.4001 48.6055 44.3256 48.6055 43.0001C48.6055 41.6746 47.531 40.6001 46.2055 40.6001ZM46.2055 43.8001H3.00547C2.56364 43.8001 2.20547 43.4419 2.20547 43.0001C2.20547 42.5583 2.56364 42.2001 3.00547 42.2001H46.2055C46.6473 42.2001 47.0055 42.5583 47.0055 43.0001C47.0055 43.4419 46.6473 43.8001 46.2055 43.8001Z" fill="#790F3E"/>
<path fill-rule="evenodd" clip-rule="evenodd" d="M13.8792 10.2367C13.4374 10.2389 13.0774 9.88255 13.0752 9.44072C13.073 8.99889 13.4294 8.63893 13.8712 8.63672H13.8792C14.321 8.63672 14.6792 8.99489 14.6792 9.43672C14.6792 9.87855 14.321 10.2367 13.8792 10.2367Z" fill="#790F3E"/>
<path fill-rule="evenodd" clip-rule="evenodd" d="M12.6055 12.6001C12.6055 19.2275 17.9781 24.6001 24.6055 24.6001C31.2329 24.6001 36.6055 19.2275 36.6055 12.6001C36.6055 5.97268 31.2329 0.600098 24.6055 0.600098C22.5983 0.615012 20.625 1.1183 18.8559 2.0665C17.1001 3.03826 15.6108 4.42776 14.5199 6.1121C14.3958 6.29196 14.353 6.51564 14.4018 6.7286C14.4507 6.94156 14.5867 7.12424 14.7767 7.2321C15.1491 7.44422 15.6219 7.33575 15.8647 6.9825C16.8109 5.52189 18.1022 4.3168 19.6247 3.4737C21.1577 2.653 22.8667 2.216 24.6055 2.2001C30.3492 2.2001 35.0055 6.85634 35.0055 12.6001C35.0055 18.3439 30.3492 23.0001 24.6055 23.0001C18.8617 23.0001 14.2055 18.3439 14.2055 12.6001C14.2055 12.1583 13.8473 11.8001 13.4055 11.8001C12.9636 11.8001 12.6055 12.1583 12.6055 12.6001Z" fill="#790F3E"/>
<path fill-rule="evenodd" clip-rule="evenodd" d="M24.6047 21.4003C25.0465 21.4003 25.4047 21.0421 25.4047 20.6003C25.4047 20.1585 25.0465 19.8003 24.6047 19.8003C20.6301 19.7959 17.4091 16.5749 17.4047 12.6003C17.4047 12.1585 17.0465 11.8003 16.6047 11.8003C16.1629 11.8003 15.8047 12.1585 15.8047 12.6003C15.8104 17.458 19.747 21.3946 24.6047 21.4003Z" fill="#790F3E"/>
<path d="M1.60801 34.5513C2.45761 35.1601 7.56482 38.2001 24.6048 38.2001C41.6448 38.2001 46.752 35.1601 47.6016 34.5513C48.6683 33.7949 48.9223 32.3182 48.1696 31.2489C47.4221 30.1797 45.961 29.8964 44.868 30.6089C44.8224 30.6353 40.2048 33.4001 24.6048 33.4001C9.02081 33.4001 4.40561 30.6497 4.40241 30.6497C3.32516 29.8781 1.82646 30.1256 1.05441 31.2025C0.683723 31.72 0.533794 32.3635 0.637616 32.9916C0.741437 33.6196 1.0905 34.1806 1.60801 34.5513ZM2.35441 32.1345C2.47745 31.9613 2.66473 31.8446 2.87441 31.8105C2.91751 31.8033 2.96113 31.7998 3.00481 31.8001C3.19037 31.8043 3.36986 31.867 3.51761 31.9793C3.71361 32.1025 8.56482 35.0001 24.6048 35.0001C40.9928 35.0001 45.6976 31.9769 45.7392 31.9497C46.1047 31.7059 46.5978 31.797 46.852 32.1553C47.1026 32.5083 47.0215 32.9973 46.6704 33.2505C46.4792 33.3873 41.7968 36.6001 24.6048 36.6001C7.41281 36.6001 2.73041 33.3873 2.53921 33.2505C2.3656 33.1269 2.24845 32.9392 2.21376 32.729C2.17907 32.5187 2.22969 32.3033 2.35441 32.1305V32.1345Z" fill="#790F3E"/>
</svg>
