<svg width="49" height="48" viewBox="0 0 49 48" fill="none" xmlns="http://www.w3.org/2000/svg">
<g clip-path="url(#clip0_212_518)">
<path d="M47.6845 37.2481C47.7823 38.2591 47.449 39.2645 46.7667 40.0169C46.0843 40.7693 45.1162 41.199 44.1005 41.2001H12.4125C6.57964 41.2639 1.71104 36.7639 1.31646 30.9441C1.16745 27.9895 2.23696 25.1031 4.27524 22.959C6.31352 20.8149 9.14211 19.6007 12.1005 19.6001H40.5005C43.8877 19.6037 46.8163 21.9632 47.5405 25.2721L47.5645 25.4001C47.6544 25.8613 47.7 26.3302 47.7005 26.8001C47.6943 30.774 44.4743 33.9939 40.5005 34.0001H43.9485C45.8409 33.9686 47.4524 35.3696 47.6845 37.2481Z" fill="#FFB0D3"/>
<path d="M43.9479 34H41.5479C43.4403 33.9686 45.0518 35.3696 45.2839 37.248C45.3817 38.2591 45.0484 39.2644 44.3661 40.0169C43.6837 40.7693 42.7156 41.1989 41.6999 41.2H44.0999C45.1156 41.1989 46.0837 40.7693 46.7661 40.0169C47.4484 39.2644 47.7817 38.2591 47.6839 37.248C47.4518 35.3696 45.8403 33.9686 43.9479 34Z" fill="#FF90C1"/>
<path d="M45.1406 25.2721L45.1646 25.4001C45.2546 25.8613 45.3001 26.3302 45.3006 26.8001C45.2944 30.774 42.0745 33.9939 38.1006 34.0001H40.5006C44.4745 33.9939 47.6944 30.774 47.7006 26.8001C47.7001 26.3302 47.6546 25.8613 47.5646 25.4001L47.5406 25.2721C46.8164 21.9632 43.8878 19.6037 40.5006 19.6001H38.1006C41.4878 19.6037 44.4164 21.9632 45.1406 25.2721Z" fill="#FF90C1"/>
<path d="M47.5401 25.2718C46.8159 21.9629 43.8873 19.6034 40.5001 19.5998H12.1001C7.07456 19.6046 2.71521 23.0722 1.58008 27.9678L4.61208 13.7598C5.47683 9.70086 9.06205 6.79934 13.2121 6.7998H36.5881C40.7381 6.79934 44.3233 9.70086 45.1881 13.7598L47.5401 25.2718Z" fill="#FF90C1"/>
<path d="M45.1885 13.7598C44.3237 9.70086 40.7385 6.79934 36.5885 6.7998H34.1885C38.3385 6.79934 41.9237 9.70086 42.7885 13.7598L44.1909 20.6238C45.9005 21.645 47.1126 23.3269 47.5405 25.2718L45.1885 13.7598Z" fill="#FFB0D3"/>
<path d="M1.57944 27.9683L1.52344 28.2163L1.57944 27.9683Z" fill="#FF90C1"/>
<path d="M12.4119 41.1998H14.8119C7.83588 41.1998 2.35428 34.8798 3.97988 27.9678L7.01188 13.7598C7.87662 9.70086 11.4618 6.79934 15.6119 6.7998H13.2119C9.06184 6.79934 5.47662 9.70086 4.61188 13.7598L1.57988 27.9678C-0.0457238 34.8798 5.43588 41.1998 12.4119 41.1998Z" fill="#FCFCFD"/>
<path d="M5.9209 40.109L6.7785 38.7578C7.6223 39.2799 8.52975 39.6913 9.4785 39.9818C10.4356 40.2432 11.4217 40.3838 12.4137 40.4002V42.0002C11.2705 41.9841 10.1339 41.8228 9.0313 41.5202C7.93776 41.1865 6.89221 40.7121 5.9209 40.109Z" fill="#FCFCFD"/>
<path d="M9.26495 41.5448C8.82312 41.547 8.46316 41.1907 8.46095 40.7488C8.45874 40.307 8.81512 39.947 9.25695 39.9448H9.26495C9.70678 39.9448 10.0649 40.303 10.0649 40.7448C10.0649 41.1867 9.70678 41.5448 9.26495 41.5448Z" fill="#790F3E"/>
<path d="M48.3506 25.2512L45.9714 13.5936C45.0121 9.17474 41.1099 6.0168 36.5882 6H13.2122C8.69076 6.01649 4.78877 9.17422 3.82979 13.5928L0.740186 28.0488C0.738991 28.068 0.738991 28.0872 0.740186 28.1064C0.546244 29.0534 0.470733 30.0208 0.515386 30.9864C0.621692 32.8307 1.16784 34.6227 2.10819 36.2128C3.06567 37.785 4.36981 39.1176 5.92099 40.1088C6.10433 40.2278 6.32878 40.2656 6.54098 40.2132C6.75318 40.1607 6.93419 40.0227 7.04099 39.832C7.24791 39.46 7.13275 38.9913 6.77699 38.7576C5.43619 37.9004 4.30843 36.7488 3.47939 35.3904C2.67295 34.0254 2.20396 32.4876 2.11139 30.9048C1.9761 28.1691 2.96775 25.4974 4.85522 23.5124C6.74269 21.5274 9.36109 20.4026 12.1002 20.4H40.5002C44.0348 20.4 46.9002 23.2654 46.9002 26.8C46.9002 30.3346 44.0348 33.2 40.5002 33.2H12.1002C11.3089 33.1989 10.5549 32.8636 10.0242 32.2766C9.49345 31.6897 9.23545 30.9058 9.31379 30.1184C9.5138 28.6525 10.781 27.5694 12.2602 27.6H40.5002C40.942 27.6 41.3002 27.2418 41.3002 26.8C41.3002 26.3582 40.942 26 40.5002 26H12.2602C9.95984 25.9756 8.00709 27.6806 7.72099 29.9632C7.59911 31.1998 8.00525 32.4304 8.83926 33.3516C9.67327 34.2727 10.8576 34.7988 12.1002 34.8H43.9458C45.4252 34.7696 46.6914 35.8556 46.8866 37.3224C46.9676 38.1114 46.7076 38.8973 46.1722 39.4824C45.6411 40.0658 44.8891 40.3988 44.1002 40.4H12.4138C11.972 40.4 11.6138 40.7582 11.6138 41.2C11.6138 41.6418 11.972 42 12.4138 42H44.1002C45.3419 42.0001 46.5259 41.4754 47.36 40.5556C48.194 39.6357 48.6006 38.4062 48.4794 37.1704C48.2592 35.3085 46.8968 33.7837 45.0714 33.356C47.6742 31.5545 48.9621 28.3819 48.3514 25.276C48.349 25.2648 48.3514 25.2584 48.3506 25.2512ZM40.5002 18.8H12.1002C8.92187 18.79 5.88119 20.0961 3.70019 22.408C3.64419 22.4664 3.59779 22.5304 3.54019 22.5896L5.39459 13.9264C6.19367 10.2448 9.44487 7.61374 13.2122 7.6H36.5882C40.3534 7.61316 43.6036 10.2411 44.405 13.92L45.8186 20.8408C44.3584 19.5275 42.4641 18.8006 40.5002 18.8Z" fill="#790F3E"/>
<path d="M19.7005 9.2002H13.2125C10.1993 9.21104 7.5987 11.3149 6.95886 14.2594C6.91477 14.467 6.955 14.6836 7.07068 14.8616C7.18636 15.0395 7.36802 15.1642 7.57566 15.2082C7.63061 15.22 7.68666 15.2259 7.74286 15.2258C8.12022 15.2254 8.44596 14.9613 8.52446 14.5922C9.00411 12.385 10.9537 10.808 13.2125 10.8002H19.7005C20.1423 10.8002 20.5005 10.442 20.5005 10.0002C20.5005 9.55837 20.1423 9.2002 19.7005 9.2002Z" fill="#790F3E"/>
<path d="M22.8996 10.8002C23.3414 10.8002 23.6996 10.442 23.6996 10.0002C23.6996 9.55837 23.3414 9.2002 22.8996 9.2002C22.4578 9.2002 22.0996 9.55837 22.0996 10.0002C22.0996 10.442 22.4578 10.8002 22.8996 10.8002Z" fill="#790F3E"/>
</g>
<defs>
<clipPath id="clip0_212_518">
<rect width="48" height="48" fill="white" transform="translate(0.5)"/>
</clipPath>
</defs>
</svg>
