<svg width="49" height="45" viewBox="0 0 49 45" fill="none" xmlns="http://www.w3.org/2000/svg">
<path d="M46.9 22.7474V22.6002C46.8974 21.8928 46.6604 21.2063 46.2262 20.6479C45.7919 20.0894 45.1849 19.6906 44.5 19.5138V3.4002C44.5 2.5515 44.1629 1.73757 43.5627 1.13745C42.9626 0.537337 42.1487 0.200195 41.3 0.200195H7.7C6.85131 0.200195 6.03737 0.537337 5.43726 1.13745C4.83714 1.73757 4.5 2.5515 4.5 3.4002C4.5 3.61237 4.58429 3.81585 4.73431 3.96588C4.88434 4.11591 5.08783 4.2002 5.3 4.2002C5.51217 4.2002 5.71566 4.11591 5.86569 3.96588C6.01571 3.81585 6.1 3.61237 6.1 3.4002C6.1 2.97585 6.26857 2.56888 6.56863 2.26882C6.86869 1.96877 7.27565 1.8002 7.7 1.8002H41.3C41.7243 1.8002 42.1313 1.96877 42.4314 2.26882C42.7314 2.56888 42.9 2.97585 42.9 3.4002V19.4002H40.8552C41.1431 18.9159 41.2967 18.3636 41.3 17.8002V11.4002C41.3 10.5515 40.9629 9.73757 40.3627 9.13745C39.7626 8.53734 38.9487 8.2002 38.1 8.2002H26.9C26.4441 8.20167 25.9938 8.30115 25.5797 8.49191C25.1656 8.68267 24.7974 8.96024 24.5 9.3058C24.2026 8.96024 23.8344 8.68267 23.4203 8.49191C23.0062 8.30115 22.5559 8.20167 22.1 8.2002H10.9C10.0513 8.2002 9.23737 8.53734 8.63726 9.13745C8.03714 9.73757 7.7 10.5515 7.7 11.4002V17.8002C7.70332 18.3636 7.85686 18.9159 8.1448 19.4002H6.1V9.8002C6.1 9.58802 6.01571 9.38454 5.86569 9.23451C5.71566 9.08448 5.51217 9.0002 5.3 9.0002C5.08783 9.0002 4.88434 9.08448 4.73431 9.23451C4.58429 9.38454 4.5 9.58802 4.5 9.8002V19.5138C3.81508 19.6906 3.20807 20.0894 2.77384 20.6479C2.33961 21.2063 2.10265 21.8928 2.1 22.6002V22.7474C1.63367 22.9123 1.22967 23.2172 0.94327 23.6204C0.656867 24.0237 0.50205 24.5056 0.5 25.0002V36.2002C0.5 36.8367 0.752856 37.4472 1.20294 37.8973C1.65303 38.3473 2.26348 38.6002 2.9 38.6002V43.4002H1.3C1.08783 43.4002 0.884344 43.4845 0.734315 43.6345C0.584285 43.7845 0.5 43.988 0.5 44.2002C0.5 44.4124 0.584285 44.6159 0.734315 44.7659C0.884344 44.9159 1.08783 45.0002 1.3 45.0002H47.7C47.9122 45.0002 48.1157 44.9159 48.2657 44.7659C48.4157 44.6159 48.5 44.4124 48.5 44.2002C48.5 43.988 48.4157 43.7845 48.2657 43.6345C48.1157 43.4845 47.9122 43.4002 47.7 43.4002H46.1V38.6002C46.7365 38.6002 47.347 38.3473 47.7971 37.8973C48.2471 37.4472 48.5 36.8367 48.5 36.2002V25.0002C48.498 24.5056 48.3431 24.0237 48.0567 23.6204C47.7703 23.2172 47.3663 22.9123 46.9 22.7474ZM25.3 11.4002C25.3 10.9759 25.4686 10.5689 25.7686 10.2688C26.0687 9.96877 26.4757 9.8002 26.9 9.8002H38.1C38.5243 9.8002 38.9313 9.96877 39.2314 10.2688C39.5314 10.5689 39.7 10.9759 39.7 11.4002V17.8002C39.7 18.2245 39.5314 18.6315 39.2314 18.9316C38.9313 19.2316 38.5243 19.4002 38.1 19.4002H26.9C26.4757 19.4002 26.0687 19.2316 25.7686 18.9316C25.4686 18.6315 25.3 18.2245 25.3 17.8002V11.4002ZM9.3 11.4002C9.3 10.9759 9.46857 10.5689 9.76863 10.2688C10.0687 9.96877 10.4757 9.8002 10.9 9.8002H22.1C22.5243 9.8002 22.9313 9.96877 23.2314 10.2688C23.5314 10.5689 23.7 10.9759 23.7 11.4002V17.8002C23.7 18.2245 23.5314 18.6315 23.2314 18.9316C22.9313 19.2316 22.5243 19.4002 22.1 19.4002H10.9C10.4757 19.4002 10.0687 19.2316 9.76863 18.9316C9.46857 18.6315 9.3 18.2245 9.3 17.8002V11.4002ZM5.3 21.0002H43.7C44.1243 21.0002 44.5313 21.1688 44.8314 21.4688C45.1314 21.7689 45.3 22.1759 45.3 22.6002H3.7C3.7 22.1759 3.86857 21.7689 4.16863 21.4688C4.46869 21.1688 4.87565 21.0002 5.3 21.0002ZM7.7 43.4002H4.5V38.6002H7.7V43.4002ZM39.7 43.4002H9.3V38.6002H39.7V43.4002ZM44.5 43.4002H41.3V38.6002H44.5V43.4002ZM46.9 36.2002C46.9 36.4124 46.8157 36.6159 46.6657 36.7659C46.5157 36.9159 46.3122 37.0002 46.1 37.0002H2.9C2.68783 37.0002 2.48434 36.9159 2.33431 36.7659C2.18429 36.6159 2.1 36.4124 2.1 36.2002V34.6002H46.9V36.2002ZM46.9 33.0002H2.1V25.0002C2.1 24.788 2.18429 24.5845 2.33431 24.4345C2.48434 24.2845 2.68783 24.2002 2.9 24.2002H46.1C46.3122 24.2002 46.5157 24.2845 46.6657 24.4345C46.8157 24.5845 46.9 24.788 46.9 25.0002V33.0002Z" fill="#790F3E"/>
<path d="M5.3 7.40029C5.74183 7.40029 6.1 7.04212 6.1 6.60029C6.1 6.15847 5.74183 5.80029 5.3 5.80029C4.85817 5.80029 4.5 6.15847 4.5 6.60029C4.5 7.04212 4.85817 7.40029 5.3 7.40029Z" fill="#790F3E"/>
</svg>
