<svg width="47" height="48" viewBox="0 0 47 48" fill="none" xmlns="http://www.w3.org/2000/svg">
<path d="M43.6055 5.5998V18.3998H27.6055L11.6055 34.3998V16.8718C11.8693 16.8226 12.1371 16.7985 12.4055 16.7998C12.1371 16.8011 11.8693 16.777 11.6055 16.7278V5.5998C12.288 5.60465 12.9391 5.31271 13.3895 4.7998H41.8215C42.2719 5.31271 42.9229 5.60465 43.6055 5.5998Z" fill="#FFB0D3"/>
<path d="M11.6055 32.0004V34.4004L27.6055 18.4004H25.2055L11.6055 32.0004Z" fill="#790F3E"/>
<path d="M41.8209 4.7998H39.4209C39.8713 5.31271 40.5223 5.60465 41.2049 5.5998V18.3998H43.6049V5.5998C42.9223 5.60465 42.2713 5.31271 41.8209 4.7998Z" fill="#790F3E"/>
<path d="M43.6055 27.2002V43.2002C43.6055 45.4093 41.8146 47.2002 39.6055 47.2002H15.6055C13.3963 47.2002 11.6055 45.4093 11.6055 43.2002V34.4002H26.0055C26.888 34.3976 27.6028 33.6828 27.6055 32.8002V27.2002H43.6055Z" fill="#FFF1F7"/>
<path d="M41.2051 27.2002V43.2002C41.2051 45.4093 39.4142 47.2002 37.2051 47.2002H39.6051C41.8142 47.2002 43.6051 45.4093 43.6051 43.2002V27.2002H41.2051Z" fill="#FF90C1"/>
<path d="M14.0051 3.19986C14.0064 3.79135 13.7867 4.36199 13.3891 4.79986C12.9387 5.31277 12.2877 5.60471 11.6051 5.59986C10.2796 5.59986 9.20508 4.52535 9.20508 3.19986C9.20508 1.87438 10.2796 0.799864 11.6051 0.799864C12.2877 0.79502 12.9387 1.08696 13.3891 1.59986C13.7867 2.03774 14.0064 2.60838 14.0051 3.19986Z" fill="#FFF1F7"/>
<path d="M46.0052 3.19986C46.0052 4.52535 44.9307 5.59986 43.6052 5.59986C42.9226 5.60471 42.2716 5.31277 41.8212 4.79986C40.9997 3.89136 40.9997 2.50837 41.8212 1.59986C42.2716 1.08696 42.9226 0.79502 43.6052 0.799864C44.2417 0.799864 44.8522 1.05272 45.3022 1.50281C45.7523 1.9529 46.0052 2.56334 46.0052 3.19986Z" fill="#FFF1F7"/>
<path d="M41.2057 3.19961C41.2043 3.79109 41.424 4.36173 41.8217 4.79961H13.3896C14.2111 3.89111 14.2111 2.50811 13.3896 1.59961H41.8217C41.424 2.03749 41.2043 2.60813 41.2057 3.19961Z" fill="#FFB0D3"/>
<path d="M41.8208 1.59961H39.4208C38.5993 2.50811 38.5993 3.89111 39.4208 4.79961H41.8208C40.9993 3.89111 40.9993 2.50811 41.8208 1.59961Z" fill="#790F3E"/>
<path d="M45.2055 20.0004V25.6004C45.2028 26.483 44.488 27.1978 43.6055 27.2004H27.6055V18.4004H43.6055C44.488 18.403 45.2028 19.1178 45.2055 20.0004Z" fill="#FFB0D3"/>
<path d="M43.6051 18.4004H41.2051C42.0876 18.403 42.8024 19.1178 42.8051 20.0004V25.6004C42.8024 26.483 42.0876 27.1978 41.2051 27.2004H43.6051C44.4876 27.1978 45.2024 26.483 45.2051 25.6004V20.0004C45.2024 19.1178 44.4876 18.403 43.6051 18.4004Z" fill="#790F3E"/>
<path d="M38.8051 8H30.8051C29.9214 8 29.2051 8.71634 29.2051 9.6V13.6C29.2051 14.4837 29.9214 15.2 30.8051 15.2H38.8051C39.6887 15.2 40.4051 14.4837 40.4051 13.6V9.6C40.4051 8.71634 39.6887 8 38.8051 8Z" fill="#FFF1F7"/>
<path d="M38.8053 8H36.4053C37.2889 8 38.0053 8.71634 38.0053 9.6V13.6C38.0053 14.4837 37.2889 15.2 36.4053 15.2H38.8053C39.6889 15.2 40.4053 14.4837 40.4053 13.6V9.6C40.4053 8.71634 39.6889 8 38.8053 8Z" fill="#FF90C1"/>
<path d="M24.4057 8H16.4057C15.522 8 14.8057 8.71634 14.8057 9.6V13.6C14.8057 14.4837 15.522 15.2 16.4057 15.2H24.4057C25.2893 15.2 26.0057 14.4837 26.0057 13.6V9.6C26.0057 8.71634 25.2893 8 24.4057 8Z" fill="#FFF1F7"/>
<path d="M24.4049 8H22.0049C22.8885 8 23.6049 8.71634 23.6049 9.6V13.6C23.6049 14.4837 22.8885 15.2 22.0049 15.2H24.4049C25.2885 15.2 26.0049 14.4837 26.0049 13.6V9.6C26.0049 8.71634 25.2885 8 24.4049 8Z" fill="#FF90C1"/>
<path d="M27.6055 18.4004V32.8004C27.6028 33.683 26.888 34.3978 26.0055 34.4004H11.6055L27.6055 18.4004Z" fill="#FFF1F7"/>
<path d="M25.2055 20.8004V32.8004C25.2028 33.683 24.488 34.3978 23.6055 34.4004H26.0055C26.888 34.3978 27.6028 33.683 27.6055 32.8004V18.4004L25.2055 20.8004Z" fill="#FF90C1"/>
<path d="M12.4057 16.7996C12.1373 16.7983 11.8695 16.8224 11.6057 16.8716C7.60566 17.6236 7.60566 23.9996 7.60566 23.9996C7.60566 23.9996 7.60566 16.7996 2.80566 16.7996C7.60566 16.7996 7.60566 9.59961 7.60566 9.59961C7.60566 9.59961 7.60566 15.9756 11.6057 16.7276C11.8695 16.7768 12.1373 16.8009 12.4057 16.7996Z" fill="#FFF1F7"/>
<path d="M7.60566 23.9996C7.63555 22.2781 8.04531 20.5844 8.80566 19.0396C8.13547 17.6635 6.73628 16.7929 5.20566 16.7996C6.73628 16.8063 8.13547 15.9357 8.80566 14.5596C8.04531 13.0148 7.63555 11.3211 7.60566 9.59961C7.60566 9.59961 7.60566 16.7996 2.80566 16.7996C7.60566 16.7996 7.60566 23.9996 7.60566 23.9996Z" fill="#FCFCFD"/>
<path d="M14.0054 43.1998V5.59977C12.68 5.59977 11.6054 4.52525 11.6054 3.19977C11.5941 2.33532 12.0609 1.53523 12.819 1.11977C11.9467 0.617645 10.8536 0.713241 10.0817 1.35918C9.30969 2.00512 9.02281 3.06414 9.36319 4.01141C9.70357 4.95868 10.5989 5.5929 11.6054 5.59977V43.1998C11.6054 45.4089 13.3963 47.1998 15.6054 47.1998H18.0054C15.7963 47.1998 14.0054 45.4089 14.0054 43.1998Z" fill="#FCFCFD"/>
<path d="M10.8057 36.7998H12.4057V43.1998H10.8057V36.7998Z" fill="#FCFCFD"/>
<path d="M11.6214 40.8002C11.1796 40.8024 10.8196 40.446 10.8174 40.0042C10.8152 39.5624 11.1716 39.2024 11.6134 39.2002H11.6214C12.0632 39.2002 12.4214 39.5584 12.4214 40.0002C12.4214 40.442 12.0632 40.8002 11.6214 40.8002Z" fill="#790F3E"/>
<path d="M46.8049 3.19996C46.8112 1.94445 46.079 0.802469 44.9355 0.284098C43.792 -0.234272 42.4506 -0.0322383 41.5105 0.799961H13.6993C12.7074 -0.0717042 11.281 -0.242071 10.1117 0.371478C8.94246 0.985026 8.27214 2.25562 8.42584 3.5671C8.57953 4.87859 9.52545 5.95978 10.8049 6.28636V15.552C8.45608 14.12 8.40488 9.65276 8.40488 9.59916C8.40488 9.15733 8.04671 8.79916 7.60488 8.79916C7.16305 8.79916 6.80488 9.15733 6.80488 9.59916C6.80488 9.66316 6.74568 15.9992 2.80488 15.9992C2.36305 15.9992 2.00488 16.3573 2.00488 16.7992C2.00488 17.241 2.36305 17.5992 2.80488 17.5992C6.74568 17.5992 6.80488 23.936 6.80488 23.9992C6.80488 24.441 7.16305 24.7992 7.60488 24.7992C8.04671 24.7992 8.40488 24.441 8.40488 23.9992C8.40488 23.9456 8.45608 19.4784 10.8049 18.0464V36.8C10.8049 37.2418 11.1631 37.6 11.6049 37.6C12.0467 37.6 12.4049 37.2418 12.4049 36.8V35.2H26.0049C27.3304 35.2 28.4049 34.1254 28.4049 32.8V28H42.8049V43.2C42.8049 44.9673 41.3722 46.4 39.6049 46.4H15.6049C13.8376 46.4 12.4049 44.9673 12.4049 43.2C12.4049 42.7581 12.0467 42.4 11.6049 42.4C11.1631 42.4 10.8049 42.7581 10.8049 43.2C10.8075 45.8498 12.955 47.9973 15.6049 48H39.6049C42.2548 47.9973 44.4022 45.8498 44.4049 43.2V27.8528C45.3604 27.515 46.0007 26.6134 46.0049 25.6V20C46.0007 18.9865 45.3604 18.085 44.4049 17.7472V6.28636C45.8134 5.92269 46.7994 4.65469 46.8049 3.19996ZM7.60488 19.7128C7.19112 18.5531 6.44623 17.5404 5.46248 16.8C6.44623 16.0596 7.19112 15.0468 7.60488 13.8872C8.01864 15.0468 8.76354 16.0596 9.74728 16.8C8.76354 17.5404 8.01864 18.5531 7.60488 19.7128ZM45.2049 3.19996C45.2049 4.08362 44.4885 4.79996 43.6049 4.79996C42.7212 4.79996 42.0049 4.08362 42.0049 3.19996C42.0049 2.31631 42.7212 1.59996 43.6049 1.59996C44.4885 1.59996 45.2049 2.31631 45.2049 3.19996ZM14.6913 2.39996H40.5185C40.4464 2.66065 40.4083 2.92952 40.4049 3.19996C40.4083 3.4704 40.4464 3.73927 40.5185 3.99996H14.6913C14.7633 3.73927 14.8015 3.4704 14.8049 3.19996C14.8015 2.92952 14.7633 2.66065 14.6913 2.39996ZM10.0049 3.19996C10.0049 2.31631 10.7212 1.59996 11.6049 1.59996C12.4885 1.59996 13.2049 2.31631 13.2049 3.19996C13.2049 4.08362 12.4885 4.79996 11.6049 4.79996C10.7212 4.79996 10.0049 4.08362 10.0049 3.19996ZM12.4049 27.2V17.6C12.8467 17.6 13.2049 17.2418 13.2049 16.8C13.2049 16.3581 12.8467 16 12.4049 16V6.28636C12.8839 6.16138 13.3271 5.92634 13.6993 5.59996H41.5105C41.8827 5.92634 42.3259 6.16138 42.8049 6.28636V17.6H27.6049C27.5881 17.6 27.5737 17.6088 27.5569 17.6096C27.4843 17.6142 27.4127 17.6288 27.3441 17.6528C27.3186 17.6602 27.2935 17.6691 27.2689 17.6792C27.185 17.7168 27.1082 17.7685 27.0417 17.832L12.4049 32.4688V27.2ZM26.8049 32.8C26.8049 33.2418 26.4467 33.6 26.0049 33.6H13.5361L26.8049 20.3312V32.8ZM44.4049 25.6C44.4049 26.0418 44.0467 26.4 43.6049 26.4H28.4049V19.2H43.6049C44.0467 19.2 44.4049 19.5581 44.4049 20V25.6Z" fill="#790F3E"/>
<path d="M30.8053 16.0002H38.8053C40.1308 16.0002 41.2053 14.9257 41.2053 13.6002V9.6002C41.2053 8.27471 40.1308 7.2002 38.8053 7.2002H30.8053C29.4798 7.2002 28.4053 8.27471 28.4053 9.6002V13.6002C28.4053 14.9257 29.4798 16.0002 30.8053 16.0002ZM30.0053 9.6002C30.0053 9.15837 30.3634 8.8002 30.8053 8.8002H38.8053C39.2471 8.8002 39.6053 9.15837 39.6053 9.6002V13.6002C39.6053 14.042 39.2471 14.4002 38.8053 14.4002H30.8053C30.3634 14.4002 30.0053 14.042 30.0053 13.6002V9.6002Z" fill="#790F3E"/>
<path d="M24.4049 7.2002H16.4049C15.0794 7.2002 14.0049 8.27471 14.0049 9.6002V13.6002C14.0049 14.9257 15.0794 16.0002 16.4049 16.0002H24.4049C25.7304 16.0002 26.8049 14.9257 26.8049 13.6002V9.6002C26.8049 8.27471 25.7304 7.2002 24.4049 7.2002ZM25.2049 13.6002C25.2049 14.042 24.8467 14.4002 24.4049 14.4002H16.4049C15.9631 14.4002 15.6049 14.042 15.6049 13.6002V9.6002C15.6049 9.15837 15.9631 8.8002 16.4049 8.8002H24.4049C24.8467 8.8002 25.2049 9.15837 25.2049 9.6002V13.6002Z" fill="#790F3E"/>
<path d="M5.60488 26.3996C5.60488 25.9578 5.24671 25.5996 4.80488 25.5996C4.36306 25.5996 4.00488 25.9578 4.00488 26.3996V27.9996C4.00488 28.4414 4.36306 28.7996 4.80488 28.7996C5.24671 28.7996 5.60488 28.4414 5.60488 27.9996V26.3996Z" fill="#790F3E"/>
<path d="M4.80488 31.2002C4.36306 31.2002 4.00488 31.5584 4.00488 32.0002V33.6002C4.00488 34.042 4.36306 34.4002 4.80488 34.4002C5.24671 34.4002 5.60488 34.042 5.60488 33.6002V32.0002C5.60488 31.5584 5.24671 31.2002 4.80488 31.2002Z" fill="#790F3E"/>
<path d="M9.20488 30.0002C9.20488 29.5584 8.84671 29.2002 8.40488 29.2002H6.80488C6.36306 29.2002 6.00488 29.5584 6.00488 30.0002C6.00488 30.442 6.36306 30.8002 6.80488 30.8002H8.40488C8.84671 30.8002 9.20488 30.442 9.20488 30.0002Z" fill="#790F3E"/>
<path d="M1.20527 30.8002H2.80527C3.2471 30.8002 3.60527 30.442 3.60527 30.0002C3.60527 29.5584 3.2471 29.2002 2.80527 29.2002H1.20527C0.763446 29.2002 0.405273 29.5584 0.405273 30.0002C0.405273 30.442 0.763446 30.8002 1.20527 30.8002Z" fill="#790F3E"/>
<path d="M17.2057 44.0004C17.6475 44.0004 18.0057 43.6422 18.0057 43.2004C18.0057 42.7586 17.6475 42.4004 17.2057 42.4004H15.6057C15.1638 42.4004 14.8057 42.7586 14.8057 43.2004C14.8057 43.6422 15.1638 44.0004 15.6057 44.0004H17.2057Z" fill="#790F3E"/>
<path d="M32.4055 44.0004C32.8473 44.0004 33.2055 43.6422 33.2055 43.2004C33.2055 42.7586 32.8473 42.4004 32.4055 42.4004H20.4055C19.9636 42.4004 19.6055 42.7586 19.6055 43.2004C19.6055 43.6422 19.9636 44.0004 20.4055 44.0004H32.4055Z" fill="#790F3E"/>
</svg>
