<svg width="127" height="127" viewBox="0 0 127 127" fill="none" xmlns="http://www.w3.org/2000/svg">
<g filter="url(#filter0_b_210_433)">
<path d="M126 63.0264C126 97.5442 98.0178 125.526 63.5 125.526C28.9822 125.526 1 97.5442 1 63.0264C1 28.5086 28.9822 0.526367 63.5 0.526367C98.0178 0.526367 126 28.5086 126 63.0264Z" fill="#FCFCFD" fill-opacity="0.5"/>
<path d="M126 63.0264C126 97.5442 98.0178 125.526 63.5 125.526C28.9822 125.526 1 97.5442 1 63.0264C1 28.5086 28.9822 0.526367 63.5 0.526367C98.0178 0.526367 126 28.5086 126 63.0264Z" stroke="#FCFCFD"/>
</g>
<path d="M109.658 55.956C109.638 56.3551 109.522 56.7284 109.309 57.0756C109.098 57.4333 108.821 57.725 108.479 57.9509C108.137 58.1871 107.762 58.3278 107.352 58.373C106.835 58.4301 106.354 58.3423 105.907 58.1096C105.47 57.8758 105.103 57.5037 104.806 56.9932C104.521 56.492 104.342 55.8798 104.271 55.1564L103.875 51.1261L114.069 50L114.45 53.8753C114.523 54.609 114.467 55.2472 114.284 55.7897C114.11 56.3312 113.841 56.7526 113.477 57.0541C113.112 57.3555 112.686 57.5332 112.198 57.587C111.594 57.6538 111.074 57.5336 110.64 57.2264C110.216 56.9284 109.889 56.505 109.658 55.956ZM109.805 51.8969L110.039 54.2686C110.104 54.93 110.3 55.4253 110.628 55.7547C110.956 56.0841 111.379 56.2203 111.896 56.1632C112.413 56.1061 112.799 55.8805 113.056 55.4865C113.313 55.0925 113.408 54.5545 113.341 53.8725L113.111 51.5318L109.805 51.8969ZM105.356 54.9112C105.425 55.6139 105.635 56.1444 105.985 56.5026C106.336 56.8608 106.789 57.0093 107.345 56.9479C107.911 56.8854 108.334 56.6297 108.615 56.1808C108.906 55.7308 109.017 55.1596 108.949 54.4673L108.708 52.0181L105.11 52.4155L105.356 54.9112Z" fill="#790F3E"/>
<path d="M108.254 68.7332C108 68.7066 107.733 68.663 107.453 68.6024L108.086 61.8092C107.291 61.7781 106.645 61.9976 106.148 62.4676C105.66 62.949 105.381 63.5619 105.312 64.3064C105.255 64.9164 105.339 65.4368 105.565 65.8677C105.8 66.3099 106.134 66.6372 106.567 66.8496L106.426 68.3695C105.676 68.0614 105.089 67.5405 104.665 66.807C104.25 66.0746 104.09 65.2017 104.185 64.1884C104.26 63.3819 104.498 62.676 104.899 62.0707C105.3 61.4757 105.829 61.0299 106.487 60.7334C107.155 60.4379 107.904 60.3336 108.733 60.4204C109.562 60.5072 110.273 60.7591 110.864 61.176C111.456 61.5929 111.888 62.1341 112.161 62.7996C112.443 63.4764 112.545 64.2284 112.468 65.0556C112.393 65.8621 112.161 66.5581 111.771 67.1438C111.381 67.7295 110.879 68.1571 110.262 68.4267C109.655 68.7076 108.985 68.8098 108.254 68.7332ZM108.668 67.3044C109.175 67.3575 109.62 67.284 110.003 67.084C110.396 66.885 110.705 66.5884 110.929 66.1943C111.161 65.8114 111.301 65.3719 111.347 64.8756C111.414 64.1621 111.256 63.5296 110.874 62.978C110.491 62.4368 109.922 62.0901 109.168 61.9381L108.668 67.3044Z" fill="#790F3E"/>
<path d="M102.671 72.709C102.845 72.0809 103.099 71.5484 103.435 71.1113C103.78 70.6771 104.171 70.3711 104.609 70.1931C105.055 70.018 105.518 69.9887 105.997 70.105L105.608 71.5108C105.211 71.4307 104.843 71.5222 104.505 71.7851C104.164 72.058 103.916 72.4736 103.761 73.0319C103.618 73.5504 103.613 73.9928 103.746 74.3591C103.88 74.7255 104.111 74.9599 104.441 75.0622C104.779 75.1675 105.073 75.0855 105.321 74.8162C105.579 74.5498 105.88 74.1075 106.225 73.4893C106.544 72.9279 106.832 72.4762 107.09 72.1342C107.355 71.805 107.677 71.5477 108.055 71.3621C108.44 71.1895 108.882 71.1807 109.38 71.3357C109.775 71.4585 110.103 71.6958 110.363 72.0474C110.624 72.399 110.784 72.8334 110.846 73.3505C110.916 73.8705 110.87 74.4247 110.707 75.0129C110.456 75.9201 110.037 76.5856 109.45 77.0094C108.862 77.4332 108.187 77.548 107.423 77.3539L107.8 75.993C108.213 76.0889 108.586 76.0153 108.918 75.7723C109.249 75.5393 109.487 75.1586 109.633 74.6302C109.768 74.1417 109.777 73.7221 109.66 73.3716C109.542 73.021 109.323 72.796 109.004 72.6966C108.75 72.6176 108.515 72.6365 108.298 72.7534C108.089 72.8831 107.896 73.0615 107.721 73.2885C107.552 73.5285 107.342 73.8637 107.09 74.2943C106.777 74.8357 106.494 75.2675 106.241 75.5895C105.998 75.9146 105.695 76.1613 105.331 76.3299C104.965 76.5084 104.545 76.5295 104.072 76.3932C103.649 76.2616 103.302 76.0185 103.033 75.664C102.763 75.3094 102.593 74.8721 102.522 74.3521C102.458 73.8449 102.508 73.2973 102.671 72.709Z" fill="#790F3E"/>
<path d="M106.792 82.462L102.487 80.3363C102.131 80.1608 101.843 80.1158 101.621 80.2014C101.409 80.2913 101.215 80.534 101.041 80.9296L100.625 81.8761L99.599 81.3694L100.108 80.2109C100.423 79.4951 100.814 79.0351 101.283 78.8307C101.751 78.6264 102.341 78.6997 103.052 79.0507L107.357 81.1764L107.798 80.1734L108.798 80.667L108.357 81.67L110.197 82.5782L109.632 83.8638L107.792 82.9556L106.904 84.9758L105.904 84.4823L106.792 82.462Z" fill="#790F3E"/>
<path d="M98.6198 96.4309C97.9467 95.8756 97.5666 95.167 97.4792 94.3049C97.3936 93.4573 97.7181 92.5334 98.4529 91.5332L99.6634 89.8853L96.2865 87.0993L97.1086 85.9802L105.197 92.6531L103.164 95.4202C102.453 96.3876 101.694 96.9395 100.886 97.0758C100.071 97.2203 99.316 97.0053 98.6198 96.4309ZM99.3232 92.2512C98.8655 92.8743 98.6558 93.4388 98.6943 93.9445C98.7328 94.4503 98.988 94.8979 99.4599 95.2872C100.458 96.1105 101.403 95.9155 102.294 94.7021L103.504 93.0542L100.534 90.6033L99.3232 92.2512Z" fill="#790F3E"/>
<path d="M95.8283 98.5423C95.9768 99.0676 95.9833 99.5858 95.8478 100.097C95.7052 100.615 95.4072 101.104 94.9538 101.564L93.9982 100.506L94.2533 100.247C95.3372 99.1481 95.3166 97.9755 94.1916 96.7292L91.1622 93.3731L92.1293 92.3927L97.7 98.5642L96.733 99.5446L95.8283 98.5423Z" fill="#790F3E"/>
<path d="M85.2886 98.3069C85.9131 97.8574 86.5772 97.5992 87.2809 97.5322C87.9765 97.4711 88.6466 97.6104 89.2911 97.9503C89.933 98.3047 90.4881 98.8471 90.9563 99.5777C91.4191 100.3 91.6807 101.041 91.7413 101.801C91.7993 102.576 91.6665 103.293 91.3428 103.953C91.0247 104.622 90.5494 105.184 89.9168 105.639C89.2842 106.094 88.6161 106.356 87.9123 106.423C87.2141 106.498 86.5427 106.366 85.8982 106.026C85.2456 105.692 84.6852 105.16 84.2169 104.429C83.7487 103.698 83.4896 102.943 83.4398 102.162C83.3873 101.396 83.5242 100.676 83.8504 100.002C84.1766 99.3272 84.656 98.7623 85.2886 98.3069ZM85.9497 99.3383C85.5523 99.6244 85.2426 99.9918 85.0205 100.44C84.7985 100.889 84.7087 101.387 84.7513 101.934C84.7857 102.487 84.9847 103.047 85.3483 103.615C85.7118 104.182 86.1258 104.587 86.59 104.831C87.0543 105.074 87.5173 105.168 87.9791 105.112C88.4464 105.065 88.8788 104.898 89.2762 104.612C89.6817 104.32 89.9914 103.952 90.2053 103.51C90.4166 103.081 90.497 102.596 90.4463 102.055C90.3957 101.514 90.1886 100.959 89.825 100.392C89.4559 99.8162 89.0474 99.4007 88.5993 99.1454C88.1432 98.896 87.6855 98.7921 87.2263 98.8338C86.7726 98.8841 86.347 99.0523 85.9497 99.3383Z" fill="#790F3E"/>
<path d="M82.9411 105.282C83.2503 106.091 83.3664 106.865 83.2894 107.604C83.216 108.353 82.9757 109.011 82.5684 109.579C82.1521 110.15 81.6077 110.58 80.9353 110.868C80.3537 111.118 79.7579 111.206 79.1477 111.131C78.5411 111.067 78.0178 110.86 77.5776 110.511L79.1788 114.7L77.9249 115.238L73.8389 104.549L75.0929 104.01L75.6616 105.498C75.7266 104.921 75.941 104.375 76.3048 103.86C76.6722 103.355 77.1786 102.964 77.8237 102.687C78.487 102.402 79.1576 102.316 79.8353 102.428C80.5039 102.545 81.1123 102.85 81.6605 103.343C82.2087 103.836 82.6356 104.483 82.9411 105.282ZM76.6113 107.983C76.8395 108.58 77.1519 109.051 77.5484 109.396C77.9449 109.742 78.3827 109.946 78.8617 110.01C79.3354 110.087 79.8039 110.026 80.2674 109.827C80.7308 109.628 81.1091 109.331 81.4024 108.936C81.6957 108.541 81.8713 108.073 81.9291 107.533C81.987 106.992 81.9018 106.423 81.6735 105.826C81.4416 105.22 81.1256 104.739 80.7254 104.384C80.3289 104.038 79.8939 103.827 79.4202 103.75C78.9502 103.683 78.4835 103.749 78.0201 103.948C77.5567 104.147 77.1783 104.443 76.885 104.838C76.5863 105.247 76.4081 105.721 76.3502 106.262C76.2961 106.812 76.3831 107.386 76.6113 107.983Z" fill="#790F3E"/>
<path d="M65.7415 115L64.3831 106.581L65.7021 106.342L65.9029 107.587C66.0848 107.111 66.383 106.709 66.7975 106.381C67.204 106.065 67.6779 105.858 68.219 105.76C68.8375 105.648 69.4146 105.68 69.9504 105.857C70.4879 106.044 70.9454 106.383 71.3229 106.873C71.6907 107.365 71.9374 108 72.063 108.779L72.8587 113.71L71.5541 113.946L70.7882 109.199C70.6543 108.37 70.3529 107.766 69.884 107.387C69.4167 107.018 68.84 106.896 68.1539 107.021C67.4485 107.148 66.93 107.48 66.5985 108.014C66.267 108.548 66.1723 109.256 66.3144 110.137L67.0606 114.761L65.7415 115Z" fill="#790F3E"/>
<path d="M63.0694 111.036C63.0443 111.918 62.8558 112.682 62.5039 113.325C62.1518 113.979 61.6766 114.479 61.0783 114.823C60.4701 115.168 59.7839 115.327 59.0196 115.303C58.0298 115.271 57.2237 114.991 56.6012 114.462C55.969 113.932 55.5628 113.212 55.3828 112.302L56.8233 112.348C56.9457 112.872 57.2035 113.291 57.5967 113.605C57.9801 113.918 58.4658 114.085 59.0537 114.104C59.8181 114.128 60.4434 113.867 60.9298 113.322C61.4159 112.786 61.6734 112.01 61.7024 110.992C61.7317 109.964 61.5191 109.162 61.0647 108.586C60.6103 108.01 60.001 107.71 59.2366 107.685C58.6486 107.667 58.1545 107.796 57.7543 108.075C57.354 108.353 57.0727 108.76 56.9103 109.295L55.4698 109.249C55.7102 108.383 56.1614 107.696 56.8232 107.187C57.4848 106.689 58.3006 106.455 59.2708 106.486C60.0351 106.51 60.711 106.714 61.2984 107.096C61.8761 107.479 62.322 108.008 62.6362 108.683C62.9505 109.358 63.0949 110.142 63.0694 111.036Z" fill="#790F3E"/>
<path d="M50.7803 113.051L51.6887 108.11C51.7637 107.702 51.7353 107.394 51.6036 107.187C51.47 106.99 51.2012 106.85 50.797 106.766L49.8299 106.567L50.0464 105.389L51.2301 105.633C51.9614 105.784 52.4771 106.076 52.7772 106.508C53.0772 106.941 53.1522 107.565 53.0022 108.381L52.0939 113.322L53.1187 113.534L52.9078 114.681L51.8829 114.469L51.4948 116.58L50.1813 116.309L50.5694 114.198L48.5053 113.772L48.7162 112.625L50.7803 113.051Z" fill="#790F3E"/>
<path d="M45.7869 103.859C46.3683 104.08 46.8549 104.381 47.2468 104.762C47.6354 105.152 47.9007 105.584 48.0425 106.058C48.181 106.541 48.1814 107.032 48.0436 107.532L46.7424 107.037C46.8412 106.622 46.7767 106.228 46.549 105.854C46.3121 105.477 45.9352 105.19 45.4185 104.994C44.9386 104.812 44.5222 104.78 44.1692 104.9C43.8162 105.02 43.5818 105.251 43.4659 105.593C43.3468 105.945 43.4067 106.26 43.6458 106.539C43.8815 106.827 44.2804 107.172 44.8424 107.573C45.3524 107.944 45.7608 108.276 46.0678 108.569C46.3622 108.868 46.5856 109.224 46.7381 109.635C46.878 110.052 46.8603 110.52 46.6849 111.039C46.5459 111.449 46.3031 111.782 45.9565 112.037C45.61 112.291 45.1913 112.436 44.7006 112.47C44.2066 112.514 43.6874 112.432 43.1429 112.226C42.3031 111.906 41.701 111.424 41.3365 110.777C40.9719 110.131 40.9036 109.41 41.1315 108.613L42.3911 109.092C42.2765 109.523 42.3238 109.922 42.5331 110.288C42.7331 110.651 43.0776 110.926 43.5667 111.112C44.0189 111.284 44.4136 111.318 44.7507 111.214C45.0878 111.11 45.3127 110.892 45.4252 110.56C45.5146 110.296 45.5106 110.046 45.4133 109.81C45.3035 109.581 45.1468 109.367 44.9433 109.168C44.7272 108.975 44.4238 108.733 44.0331 108.441C43.5416 108.078 43.1516 107.753 42.8631 107.467C42.5713 107.19 42.3567 106.855 42.2194 106.46C42.0728 106.062 42.0777 105.617 42.234 105.125C42.3829 104.685 42.6323 104.332 42.9822 104.068C43.332 103.804 43.754 103.649 44.248 103.605C44.7295 103.568 45.2424 103.652 45.7869 103.859Z" fill="#790F3E"/>
<path d="M98.2021 64.3037C98.2021 84.186 82.0844 100.304 62.2021 100.304C42.3199 100.304 26.2021 84.186 26.2021 64.3037C26.2021 44.4215 42.3199 28.3037 62.2021 28.3037C82.0844 28.3037 98.2021 44.4215 98.2021 64.3037Z" fill="#F1CB46"/>
<path d="M90 64C90 79.464 77.464 92 62 92C46.536 92 34 79.464 34 64C34 48.536 46.536 36 62 36C77.464 36 90 48.536 90 64Z" fill="#790F3E"/>
<path d="M60.2638 57.2202C61.1079 55.0734 61.5299 54 62.2557 54C62.9814 54 63.4034 55.0734 64.2475 57.2202L64.2868 57.3201C64.7637 58.5329 65.0021 59.1394 65.488 59.5079C65.9739 59.8765 66.6118 59.9348 67.8876 60.0514L68.1182 60.0724C70.2062 60.2632 71.2502 60.3586 71.4735 61.0362C71.6969 61.7138 70.9216 62.4335 69.371 63.8727L68.8535 64.353C68.0686 65.0816 67.6761 65.4459 67.4932 65.9233C67.4591 66.0124 67.4307 66.1036 67.4083 66.1965C67.288 66.6942 67.4029 67.2227 67.6328 68.2796L67.7043 68.6086C68.1268 70.551 68.338 71.5222 67.9692 71.9412C67.8314 72.0977 67.6523 72.2104 67.4533 72.2658C66.9209 72.414 66.165 71.7856 64.6531 70.5287C63.6603 69.7034 63.1639 69.2908 62.594 69.1979C62.3699 69.1614 62.1415 69.1614 61.9173 69.1979C61.3474 69.2908 60.851 69.7034 59.8583 70.5287C58.3464 71.7856 57.5904 72.414 57.058 72.2658C56.859 72.2104 56.6799 72.0977 56.5421 71.9412C56.1733 71.5222 56.3846 70.551 56.807 68.6086L56.8785 68.2796C57.1084 67.2227 57.2233 66.6942 57.1031 66.1965C57.0807 66.1036 57.0523 66.0124 57.0182 65.9233C56.8352 65.4459 56.4428 65.0816 55.6578 64.353L55.1403 63.8727C53.5897 62.4335 52.8144 61.7138 53.0378 61.0362C53.2612 60.3586 54.3052 60.2632 56.3931 60.0724L56.6237 60.0514C57.8995 59.9348 58.5374 59.8765 59.0233 59.5079C59.5093 59.1394 59.7477 58.5329 60.2245 57.3201L60.2638 57.2202Z" fill="#FFF5E6"/>
<ellipse cx="99.4347" cy="29.7478" rx="4.28922" ry="4.54566" fill="#790F3E"/>
<ellipse cx="26.1222" cy="99.8826" rx="4.28922" ry="4.54566" fill="#790F3E"/>
<path d="M13.7211 73.9434C13.7135 73.5438 13.8036 73.1626 13.9914 72.7998C14.1776 72.4269 14.4336 72.1145 14.7597 71.8628C15.0841 71.6009 15.4489 71.4316 15.8542 71.3549C16.3658 71.258 16.8523 71.3084 17.3138 71.506C17.7657 71.7055 18.1571 72.0483 18.488 72.5345C18.8076 73.0123 19.0277 73.6092 19.1484 74.3251L19.8206 78.3141L9.73031 80.2241L9.08389 76.3885C8.9615 75.6623 8.97303 75.0216 9.11847 74.4663C9.25426 73.9129 9.49363 73.4718 9.83658 73.143C10.1795 72.8142 10.5923 72.6042 11.0748 72.5128C11.6732 72.3996 12.1996 72.4794 12.6539 72.7522C13.0968 73.0167 13.4525 73.4137 13.7211 73.9434ZM13.8525 78.0031L13.4569 75.6558C13.3466 75.0011 13.1165 74.5222 12.7666 74.2191C12.4168 73.9159 11.9861 73.8127 11.4746 73.9095C10.963 74.0063 10.5927 74.2612 10.3635 74.674C10.1343 75.0867 10.0766 75.6307 10.1903 76.3057L10.5808 78.6224L13.8525 78.0031ZM18.0833 74.6534C17.9661 73.9579 17.7203 73.445 17.3459 73.1148C16.9716 72.7846 16.5094 72.6715 15.9593 72.7757C15.3995 72.8816 14.9948 73.1693 14.7453 73.6387C14.4861 74.11 14.4143 74.6882 14.5297 75.3735L14.9383 77.7976L18.4996 77.1235L18.0833 74.6534Z" fill="#790F3E"/>
<path d="M14.2504 61.1719C14.5052 61.1781 14.7744 61.2004 15.058 61.2386L14.9079 68.063C15.703 68.0307 16.3316 67.7604 16.7939 67.2521C17.2466 66.7333 17.4812 66.0999 17.4976 65.352C17.5111 64.7392 17.39 64.2269 17.1343 63.8153C16.8689 63.393 16.5127 63.0932 16.0655 62.9159L16.0991 61.389C16.8683 61.6366 17.4905 62.1093 17.9655 62.8069C18.4307 63.5043 18.6521 64.362 18.6297 65.38C18.6119 66.1902 18.4244 66.9131 18.0672 67.5486C17.7102 68.1738 17.2141 68.6604 16.5788 69.0084C15.9337 69.3563 15.1946 69.5199 14.3615 69.4993C13.5284 69.4788 12.8021 69.2841 12.1826 68.9155C11.5631 68.5468 11.0937 68.0416 10.7743 67.3997C10.4455 66.7472 10.2901 66.0055 10.3084 65.1745C10.3262 64.3643 10.5086 63.6517 10.8555 63.0367C11.2025 62.4217 11.6736 61.9553 12.269 61.6374C12.8548 61.3089 13.5153 61.1537 14.2504 61.1719ZM13.9389 62.6296C13.4292 62.617 12.9904 62.7257 12.6225 62.9556C12.2448 63.1853 11.9583 63.5056 11.7629 63.9165C11.558 64.3168 11.45 64.7662 11.4391 65.2648C11.4233 65.9815 11.6255 66.5997 12.0456 67.1193C12.4659 67.6286 13.0574 67.929 13.8203 68.0206L13.9389 62.6296Z" fill="#790F3E"/>
<path d="M19.5398 56.7528C19.4113 57.393 19.1953 57.9445 18.892 58.4072C18.579 58.8678 18.2107 59.2043 17.7871 59.4169C17.354 59.6272 16.8946 59.6936 16.409 59.616L16.6967 58.1831C17.098 58.2311 17.4581 58.1104 17.7767 57.8211C18.0975 57.5216 18.315 57.0874 18.4292 56.5183C18.5353 55.9898 18.5087 55.5483 18.3494 55.1937C18.19 54.839 17.9425 54.6239 17.6069 54.5482C17.2617 54.4704 16.9749 54.5757 16.7466 54.8641C16.5087 55.1504 16.2399 55.6156 15.9402 56.2597C15.6623 56.8451 15.4069 57.3186 15.1739 57.6803C14.9333 58.0298 14.6311 58.3122 14.2671 58.5275C13.8955 58.7305 13.4556 58.7748 12.9474 58.6602C12.5447 58.5693 12.201 58.3591 11.9164 58.0293C11.6318 57.6996 11.4405 57.2793 11.3425 56.7686C11.235 56.2557 11.2415 55.6995 11.3618 55.0999C11.5475 54.1751 11.918 53.4779 12.4734 53.0082C13.0287 52.5386 13.6941 52.3699 14.4694 52.5023L14.1909 53.8895C13.7724 53.827 13.4059 53.9302 13.0913 54.1992C12.7787 54.458 12.5684 54.8568 12.4602 55.3954C12.3602 55.8933 12.3814 56.3124 12.5236 56.6525C12.6658 56.9926 12.8999 57.1994 13.2259 57.273C13.4848 57.3313 13.7179 57.2936 13.9252 57.1598C14.125 57.0136 14.3041 56.8203 14.4626 56.5799C14.6136 56.3271 14.7994 55.9759 15.0199 55.5264C15.2937 54.9614 15.5451 54.5082 15.774 54.1668C15.9934 53.8232 16.2782 53.5528 16.6285 53.3556C16.9809 53.1483 17.3978 53.0936 17.8793 53.1915C18.3108 53.2888 18.6737 53.5034 18.9679 53.8353C19.2621 54.1672 19.4629 54.5896 19.5705 55.1025C19.6704 55.6031 19.6602 56.1532 19.5398 56.7528Z" fill="#790F3E"/>
<path d="M14.7363 47.3586L19.1789 49.14C19.5457 49.2871 19.8365 49.3093 20.0514 49.2066C20.2571 49.1002 20.4328 48.8429 20.5785 48.4348L20.9272 47.4582L21.9862 47.8828L21.5595 49.0781C21.2958 49.8167 20.9376 50.3062 20.4848 50.5468C20.0321 50.7874 19.4389 50.7606 18.7053 50.4665L14.2627 48.6851L13.8932 49.72L12.8616 49.3064L13.2311 48.2714L11.333 47.5103L11.8066 46.1838L13.7047 46.9449L14.4489 44.8605L15.4805 45.2741L14.7363 47.3586Z" fill="#790F3E"/>
<path d="M21.9139 32.8062C22.6231 33.3084 23.0507 33.9861 23.1966 34.8392C23.3399 35.6779 23.0793 36.6243 22.4148 37.6782L21.32 39.4147L24.8782 41.9344L24.1347 43.1136L15.6122 37.0785L17.4505 34.1628C18.0932 33.1434 18.813 32.5347 19.6099 32.3368C20.4122 32.1302 21.1802 32.2867 21.9139 32.8062ZM21.4977 37.0288C21.9117 36.3723 22.0822 35.7932 22.0093 35.2917C21.9364 34.7903 21.6513 34.3634 21.154 34.0113C20.1025 33.2667 19.1736 33.5336 18.3675 34.8122L17.2727 36.5486L20.4029 38.7653L21.4977 37.0288Z" fill="#790F3E"/>
<path d="M24.4795 30.573C24.2956 30.0605 24.2538 29.5441 24.3541 29.0239C24.4611 28.4959 24.725 27.9854 25.1459 27.4922L26.1711 28.475L25.9343 28.7524C24.928 29.9313 25.0284 31.0993 26.2353 32.2563L29.4853 35.3719L28.5876 36.4237L22.6111 30.6943L23.5088 29.6426L24.4795 30.573Z" fill="#790F3E"/>
<path d="M35.1261 29.8562C34.5343 30.353 33.8898 30.662 33.1926 30.7834C32.503 30.8982 31.8252 30.8112 31.1589 30.5221C30.4943 30.2185 29.9032 29.7205 29.3858 29.0282C28.8745 28.3441 28.5624 27.6252 28.4495 26.8717C28.3382 26.1036 28.4212 25.3779 28.6984 24.6946C28.9695 24.0031 29.4048 23.4058 30.0043 22.9026C30.6037 22.3994 31.2521 22.0871 31.9493 21.9658C32.6404 21.8363 33.3191 21.9161 33.9854 22.2051C34.6593 22.4877 35.2549 22.9751 35.7724 23.6674C36.2898 24.3598 36.6003 25.0932 36.7039 25.8677C36.8091 26.6277 36.7223 27.3566 36.4435 28.0546C36.1647 28.7525 35.7255 29.3531 35.1261 29.8562ZM34.3956 28.8789C34.7722 28.5628 35.0557 28.1723 35.2462 27.7076C35.4367 27.2429 35.4918 26.7393 35.4116 26.197C35.3391 25.6481 35.102 25.1049 34.7002 24.5674C34.2985 24.0298 33.8577 23.6576 33.3779 23.4506C32.8981 23.2437 32.4298 23.1861 31.9731 23.2778C31.5103 23.3615 31.0906 23.5613 30.7141 23.8774C30.3298 24.2 30.0463 24.5904 29.8635 25.0487C29.6823 25.4923 29.6356 25.9821 29.7235 26.5181C29.8114 27.054 30.0562 27.5908 30.4579 28.1283C30.8658 28.674 31.3019 29.0568 31.7664 29.2766C32.2385 29.49 32.7021 29.5581 33.1572 29.481C33.6063 29.3957 34.019 29.195 34.3956 28.8789Z" fill="#790F3E"/>
<path d="M37.0835 22.6342C36.7226 21.8497 36.5566 21.0859 36.5855 20.3427C36.6101 19.5902 36.8072 18.9161 37.1767 18.3206C37.5551 17.7205 38.0703 17.252 38.7224 16.915C39.2864 16.6236 39.8752 16.4927 40.4888 16.5225C41.098 16.5428 41.6336 16.7111 42.0954 17.0274L40.2263 12.9649L41.4424 12.3365L46.2118 22.7028L44.9957 23.3312L44.3318 21.8884C44.3044 22.4689 44.126 23.0293 43.7964 23.5695C43.4626 24.1003 42.9828 24.5274 42.3571 24.8507C41.7138 25.1832 41.0505 25.3179 40.3671 25.2549C39.6925 25.1873 39.0657 24.9275 38.4868 24.4752C37.9079 24.023 37.4402 23.4093 37.0835 22.6342ZM43.2233 19.4789C42.9569 18.8999 42.6147 18.4525 42.1967 18.1367C41.7788 17.821 41.3288 17.6489 40.8467 17.6206C40.3692 17.5784 39.9057 17.6734 39.4563 17.9056C39.0069 18.1378 38.6487 18.4616 38.3817 18.877C38.1147 19.2924 37.9699 19.7718 37.9472 20.3153C37.9246 20.8587 38.0464 21.4199 38.3128 21.999C38.5835 22.5873 38.93 23.0441 39.3522 23.3692C39.7702 23.6849 40.2179 23.8639 40.6955 23.9061C41.1687 23.939 41.63 23.8393 42.0795 23.6071C42.5289 23.3749 42.8871 23.051 43.1541 22.6357C43.4256 22.2064 43.5727 21.72 43.5953 21.1766C43.6137 20.6238 43.4897 20.0579 43.2233 19.4789Z" fill="#790F3E"/>
<path d="M53.2466 11.7481L55.1822 20.0387L53.8831 20.3794L53.597 19.1539C53.4485 19.6424 53.1788 20.0663 52.788 20.4257C52.4044 20.7725 51.9461 21.0157 51.4132 21.1555C50.8041 21.3152 50.2263 21.3276 49.6797 21.1926C49.1307 21.0476 48.6511 20.7452 48.2408 20.2855C47.84 19.8233 47.5501 19.209 47.3712 18.4424L46.2373 13.586L47.5221 13.2491L48.6136 17.924C48.8043 18.7409 49.1466 19.3202 49.6404 19.6616C50.1318 19.993 50.7154 20.0701 51.3911 19.8929C52.0858 19.7107 52.5801 19.3403 52.8738 18.7816C53.1676 18.2229 53.2132 17.5099 53.0107 16.6425L51.9475 12.0887L53.2466 11.7481Z" fill="#790F3E"/>
<path d="M56.2771 15.459C56.242 14.5767 56.378 13.801 56.685 13.1322C56.9916 12.4529 57.4316 11.9185 58.0048 11.5289C58.5879 11.1389 59.2614 10.9268 60.0255 10.8927C61.0148 10.8485 61.8379 11.0665 62.4948 11.5467C63.1615 12.0265 63.6157 12.7134 63.8573 13.6073L62.4174 13.6717C62.2596 13.1587 61.974 12.7607 61.5604 12.4776C61.1566 12.1941 60.6609 12.0654 60.0731 12.0917C59.3091 12.1258 58.7032 12.4337 58.2553 13.0152C57.807 13.5864 57.6031 14.3807 57.6435 15.398C57.6844 16.4257 57.9511 17.2093 58.4436 17.7489C58.936 18.2885 59.5643 18.5412 60.3283 18.5071C60.916 18.4808 61.4 18.3136 61.7802 18.0054C62.1605 17.6973 62.4133 17.27 62.5388 16.7236L63.9787 16.6593C63.7979 17.5409 63.3948 18.2609 62.7693 18.8192C62.1435 19.3671 61.3457 19.6627 60.376 19.7061C59.6119 19.7402 58.924 19.5889 58.312 19.2523C57.7098 18.9152 57.229 18.4219 56.8696 17.7724C56.5101 17.1229 56.3126 16.3518 56.2771 15.459Z" fill="#790F3E"/>
<path d="M68.2644 12.4635L67.7051 17.4625C67.659 17.8752 67.7088 18.1797 67.8547 18.3759C68.0018 18.5618 68.2797 18.6804 68.6886 18.7318L69.6671 18.8547L69.5337 20.0464L68.3362 19.896C67.5963 19.803 67.0616 19.5527 66.732 19.1451C66.4025 18.7375 66.2839 18.121 66.3762 17.2955L66.9355 12.2965L65.8986 12.1663L66.0285 11.0055L67.0654 11.1358L67.3043 9L68.6332 9.16699L68.3943 11.3028L70.4826 11.5652L70.3527 12.7259L68.2644 12.4635Z" fill="#790F3E"/>
<path d="M73.956 21.2132C73.3605 21.0394 72.8538 20.7784 72.4359 20.4301C72.0205 20.0718 71.7252 19.6623 71.55 19.2017C71.3774 18.731 71.342 18.2411 71.4438 17.732L72.7765 18.1209C72.7076 18.5426 72.8 18.9306 73.0537 19.2848C73.3169 19.6418 73.7131 19.8976 74.2425 20.052C74.734 20.1954 75.1514 20.1933 75.4949 20.0457C75.8383 19.898 76.0555 19.6489 76.1466 19.2983C76.2403 18.9377 76.1581 18.6281 75.8998 18.3695C75.6442 18.101 75.2219 17.7891 74.6328 17.434C74.0979 17.1055 73.6669 16.8073 73.3399 16.5395C73.025 16.2644 72.7768 15.9279 72.5955 15.5301C72.4261 15.1251 72.4105 14.6571 72.5484 14.1262C72.6577 13.7055 72.8761 13.3543 73.2035 13.0726C73.5309 12.791 73.938 12.6134 74.4248 12.5399C74.9143 12.4565 75.4378 12.4961 75.9955 12.6588C76.8557 12.9098 77.4905 13.343 77.9001 13.9582C78.3097 14.5735 78.4293 15.2873 78.2589 16.0997L76.9687 15.7232C77.0523 15.2842 76.9767 14.8903 76.7419 14.5416C76.5165 14.1957 76.1534 13.9496 75.6524 13.8034C75.1892 13.6683 74.7933 13.6659 74.4645 13.7962C74.1357 13.9266 73.9271 14.1621 73.8386 14.5027C73.7683 14.7731 73.7901 15.022 73.904 15.2492C74.0299 15.4691 74.2014 15.6701 74.4185 15.852C74.6477 16.0266 74.9675 16.2439 75.3779 16.5037C75.8939 16.8267 76.306 17.1194 76.6141 17.3817C76.9248 17.634 77.1627 17.9513 77.3277 18.3336C77.5023 18.7186 77.5292 19.1629 77.4085 19.6665C77.2914 20.1173 77.0678 20.4885 76.7378 20.7802C76.4078 21.0719 75.9981 21.2594 75.5087 21.3429C75.0312 21.4191 74.5137 21.3759 73.956 21.2132Z" fill="#790F3E"/>
<defs>
<filter id="filter0_b_210_433" x="-5.5" y="-5.97363" width="138" height="138" filterUnits="userSpaceOnUse" color-interpolation-filters="sRGB">
<feFlood flood-opacity="0" result="BackgroundImageFix"/>
<feGaussianBlur in="BackgroundImageFix" stdDeviation="3"/>
<feComposite in2="SourceAlpha" operator="in" result="effect1_backgroundBlur_210_433"/>
<feBlend mode="normal" in="SourceGraphic" in2="effect1_backgroundBlur_210_433" result="shape"/>
</filter>
</defs>
</svg>
