<svg width="20" height="20" viewBox="0 0 20 20" fill="none" xmlns="http://www.w3.org/2000/svg">
<path d="M17.3087 16.2748C17.3087 16.5748 17.242 16.8832 17.1003 17.1832C16.9587 17.4832 16.7753 17.7665 16.5337 18.0332C16.1253 18.4832 15.6753 18.8082 15.167 19.0165C14.667 19.2248 14.1253 19.3332 13.542 19.3332C12.692 19.3332 11.7837 19.1332 10.8253 18.7248C9.86699 18.3165 8.90866 17.7665 7.95866 17.0748C7.00033 16.3748 6.09199 15.5998 5.22533 14.7415C4.36699 13.8748 3.59199 12.9665 2.90033 12.0165C2.21699 11.0665 1.66699 10.1165 1.26699 9.17484C0.866992 8.22484 0.666992 7.3165 0.666992 6.44984C0.666992 5.88317 0.766992 5.3415 0.966992 4.8415C1.16699 4.33317 1.48366 3.8665 1.92533 3.44984C2.45866 2.92484 3.04199 2.6665 3.65866 2.6665C3.89199 2.6665 4.12533 2.7165 4.33366 2.8165C4.55033 2.9165 4.74199 3.0665 4.89199 3.28317L6.82533 6.00817C6.97533 6.2165 7.08366 6.40817 7.15866 6.5915C7.23366 6.7665 7.27533 6.9415 7.27533 7.09984C7.27533 7.29984 7.21699 7.49984 7.10033 7.6915C6.99199 7.88317 6.83366 8.08317 6.63366 8.28317L6.00033 8.9415C5.90866 9.03317 5.86699 9.1415 5.86699 9.27484C5.86699 9.3415 5.87533 9.39984 5.89199 9.4665C5.91699 9.53317 5.94199 9.58317 5.95866 9.63317C6.10866 9.90817 6.36699 10.2665 6.73366 10.6998C7.10866 11.1332 7.50866 11.5748 7.94199 12.0165C8.39199 12.4582 8.82533 12.8665 9.26699 13.2415C9.70033 13.6082 10.0587 13.8582 10.342 14.0082C10.3837 14.0248 10.4337 14.0498 10.492 14.0748C10.5587 14.0998 10.6253 14.1082 10.7003 14.1082C10.842 14.1082 10.9503 14.0582 11.042 13.9665L11.6753 13.3415C11.8837 13.1332 12.0837 12.9748 12.2753 12.8748C12.467 12.7582 12.6587 12.6998 12.867 12.6998C13.0253 12.6998 13.192 12.7332 13.3753 12.8082C13.5587 12.8832 13.7503 12.9915 13.9587 13.1332L16.717 15.0915C16.9337 15.2415 17.0837 15.4165 17.1753 15.6248C17.2587 15.8332 17.3087 16.0415 17.3087 16.2748Z" stroke="#790F3E" stroke-width="1.2" stroke-miterlimit="10"/>
<path d="M14.4167 8.49967C14.4167 7.99967 14.025 7.23301 13.4417 6.60801C12.9083 6.03301 12.2 5.58301 11.5 5.58301" stroke="#790F3E" stroke-width="1.2" stroke-linecap="round" stroke-linejoin="round"/>
<path d="M17.3333 8.49984C17.3333 5.27484 14.725 2.6665 11.5 2.6665" stroke="#790F3E" stroke-width="1.2" stroke-linecap="round" stroke-linejoin="round"/>
</svg>
