<svg width="49" height="48" viewBox="0 0 49 48" fill="none" xmlns="http://www.w3.org/2000/svg">
<g clip-path="url(#clip0_201_3243)">
<path fill-rule="evenodd" clip-rule="evenodd" d="M47.8053 36.928V39.2H1.40527V36.928C1.40673 36.6138 1.45252 36.3014 1.54127 36H47.6693C47.758 36.3014 47.8038 36.6138 47.8053 36.928Z" fill="#FFF1F7"/>
<path fill-rule="evenodd" clip-rule="evenodd" d="M47.6695 36H45.2695C45.3583 36.3014 45.4041 36.6138 45.4055 36.928V39.2H47.8055V36.928C47.8041 36.6138 47.7583 36.3014 47.6695 36Z" fill="#FF90C1"/>
<path fill-rule="evenodd" clip-rule="evenodd" d="M47.669 35.9998H1.54102C1.62281 35.7226 1.74405 35.4585 1.90102 35.2158L10.533 21.5438C10.8274 21.0815 11.337 20.8011 11.885 20.7998H37.325C37.8731 20.8011 38.3827 21.0815 38.677 21.5438L47.309 35.2158C47.466 35.4585 47.5872 35.7226 47.669 35.9998Z" fill="#FFF1F7"/>
<path fill-rule="evenodd" clip-rule="evenodd" d="M47.3098 35.2158L38.6778 21.5438C38.3834 21.0815 37.8738 20.8011 37.3258 20.7998H34.9258C35.4738 20.8011 35.9834 21.0815 36.2778 21.5438L44.9098 35.2158C45.0667 35.4585 45.188 35.7226 45.2698 35.9998H47.6698C47.588 35.7226 47.4668 35.4585 47.3098 35.2158Z" fill="#FF90C1"/>
<path fill-rule="evenodd" clip-rule="evenodd" d="M47.8053 39.2002V45.6002C47.8026 46.4828 47.0878 47.1976 46.2053 47.2002H3.00527C2.12271 47.1976 1.40791 46.4828 1.40527 45.6002V39.2002H47.8053Z" fill="#FFB0D3"/>
<path fill-rule="evenodd" clip-rule="evenodd" d="M45.4057 39.2002V45.6002C45.403 46.4828 44.6882 47.1976 43.8057 47.2002H46.2057C47.0882 47.1976 47.803 46.4828 47.8057 45.6002V39.2002H45.4057Z" fill="#790F3E"/>
<path fill-rule="evenodd" clip-rule="evenodd" d="M24.0783 31.8026L20.0783 27.8026C19.8272 27.5831 19.7385 27.2309 19.8559 26.9187C19.9733 26.6065 20.272 26.3999 20.6055 26.4002H22.2055V24.0002C22.2055 23.5584 22.5637 23.2002 23.0055 23.2002H26.2055C26.6473 23.2002 27.0055 23.5584 27.0055 24.0002V26.4002H28.6055C28.939 26.3999 29.2378 26.6065 29.3551 26.9187C29.4725 27.2309 29.3839 27.5831 29.1327 27.8026L25.1327 31.8026C24.831 32.067 24.3801 32.067 24.0783 31.8026Z" fill="#FFF1F7"/>
<path fill-rule="evenodd" clip-rule="evenodd" d="M28.6053 26.4002H27.0053V24.0002C27.0053 23.5584 26.6471 23.2002 26.2053 23.2002H23.8053C24.2471 23.2002 24.6053 23.5584 24.6053 24.0002V25.6002C24.6053 26.042 24.9634 26.4002 25.4053 26.4002H26.2053C26.5388 26.3999 26.8375 26.6065 26.9549 26.9187C27.0723 27.2309 26.9836 27.5831 26.7325 27.8026L23.4053 31.129L24.0781 31.8026C24.3798 32.067 24.8307 32.067 25.1325 31.8026L29.1325 27.8026C29.3836 27.5831 29.4723 27.2309 29.3549 26.9187C29.2375 26.6065 28.9388 26.3999 28.6053 26.4002Z" fill="#FF90C1"/>
<path fill-rule="evenodd" clip-rule="evenodd" d="M24.0783 0.99809L20.0783 4.99809C19.8272 5.21756 19.7385 5.5698 19.8559 5.882C19.9733 6.19419 20.272 6.40082 20.6055 6.40049H22.2055V8.80049C22.2055 9.24232 22.5637 9.60049 23.0055 9.60049H26.2055C26.6473 9.60049 27.0055 9.24232 27.0055 8.80049V6.40049H28.6055C28.939 6.40082 29.2378 6.19419 29.3551 5.882C29.4725 5.5698 29.3839 5.21756 29.1327 4.99809L25.1327 0.99809C24.831 0.733709 24.3801 0.733709 24.0783 0.99809Z" fill="#FFF1F7"/>
<path fill-rule="evenodd" clip-rule="evenodd" d="M29.1325 4.99809L25.1325 0.99809C24.8307 0.733709 24.3798 0.733709 24.0781 0.99809L23.4053 1.67169L26.7325 4.99809C26.9836 5.21756 27.0723 5.5698 26.9549 5.882C26.8375 6.19419 26.5388 6.40082 26.2053 6.40049H25.4053C24.9634 6.40049 24.6053 6.75866 24.6053 7.20049V8.80049C24.6053 9.24232 24.2471 9.60049 23.8053 9.60049H26.2053C26.6471 9.60049 27.0053 9.24232 27.0053 8.80049V6.40049H28.6053C28.9388 6.40082 29.2375 6.19419 29.3549 5.882C29.4723 5.5698 29.3836 5.21756 29.1325 4.99809Z" fill="#FF90C1"/>
<path fill-rule="evenodd" clip-rule="evenodd" d="M3.80529 45.5998V36.9278C3.80359 36.3215 3.97572 35.7273 4.30129 35.2158L12.9333 21.5438C13.2276 21.0815 13.7372 20.8011 14.2853 20.7998H11.8853C11.3372 20.8011 10.8276 21.0815 10.5333 21.5438L1.90129 35.2158C1.57572 35.7273 1.40359 36.3215 1.40529 36.9278V45.5998C1.40792 46.4824 2.12272 47.1972 3.00529 47.1998H5.40529C4.52272 47.1972 3.80792 46.4824 3.80529 45.5998Z" fill="#FCFCFD"/>
<path fill-rule="evenodd" clip-rule="evenodd" d="M6.46094 26.5322L9.87982 21.1158L11.2341 21.9706L7.81521 27.3871L6.46094 26.5322Z" fill="#FCFCFD"/>
<path fill-rule="evenodd" clip-rule="evenodd" d="M9.50189 24.6773C9.67464 24.4037 9.66553 24.0529 9.47881 23.7886C9.29208 23.5243 8.96451 23.3985 8.64888 23.47C8.33325 23.5414 8.09173 23.7959 8.03696 24.1148C7.98219 24.4338 8.12496 24.7543 8.39869 24.9269C8.77227 25.1625 9.2661 25.0508 9.50189 24.6773Z" fill="#790F3E"/>
<path fill-rule="evenodd" clip-rule="evenodd" d="M15.8054 20.8C15.8054 20.3582 15.4473 20 15.0054 20H11.8854C11.0637 19.999 10.2987 20.4194 9.85904 21.1136C9.70527 21.3545 9.69172 21.6592 9.8235 21.9128C9.95528 22.1665 10.2124 22.3306 10.4979 22.3432C10.7834 22.3559 11.0541 22.2153 11.2078 21.9744C11.3558 21.743 11.6108 21.6022 11.8854 21.6H15.0054C15.4473 21.6 15.8054 21.2418 15.8054 20.8Z" fill="#790F3E"/>
<path d="M39.3519 21.1136C38.9122 20.4194 38.1473 19.999 37.3255 20H35.8055C35.3637 20 35.0055 20.3582 35.0055 20.8C35.0055 21.2418 35.3637 21.6 35.8055 21.6H37.3255C37.5988 21.6017 37.8528 21.7413 38.0007 21.9712L46.3535 35.2H2.85749L7.79349 27.3824C8.01717 27.0095 7.9021 26.5263 7.53438 26.2943C7.16666 26.0622 6.68094 26.1664 6.44069 26.5288L1.22469 34.7888C0.817905 35.428 0.603006 36.1704 0.60549 36.928V45.6C0.60549 46.9255 1.68001 48 3.00549 48H46.2055C47.531 48 48.6055 46.9255 48.6055 45.6V36.928C48.6077 36.1702 48.3928 35.4276 47.9863 34.788L39.3519 21.1136ZM46.2055 46.4H3.00549C2.56366 46.4 2.20549 46.0418 2.20549 45.6V40H6.20549C6.64732 40 7.00549 39.6418 7.00549 39.2C7.00549 38.7582 6.64732 38.4 6.20549 38.4H2.20549V36.928C2.20549 36.8848 2.21189 36.8432 2.21429 36.8H46.9967C46.9967 36.8432 47.0055 36.8848 47.0055 36.928V38.4H10.2055C9.76366 38.4 9.40549 38.7582 9.40549 39.2C9.40549 39.6418 9.76366 40 10.2055 40H47.0055V45.6C47.0055 46.0418 46.6473 46.4 46.2055 46.4Z" fill="#790F3E"/>
<path d="M14.2053 24.8002C14.6471 24.8002 15.0053 24.442 15.0053 24.0002C15.0053 23.5584 14.6471 23.2002 14.2053 23.2002C13.7634 23.2002 13.4053 23.5584 13.4053 24.0002C13.4053 24.442 13.7634 24.8002 14.2053 24.8002Z" fill="#790F3E"/>
<path d="M19.8059 32.8002C20.2477 32.8002 20.6059 32.442 20.6059 32.0002C20.6059 31.5584 20.2477 31.2002 19.8059 31.2002C19.364 31.2002 19.0059 31.5584 19.0059 32.0002C19.0059 32.442 19.364 32.8002 19.8059 32.8002Z" fill="#790F3E"/>
<path d="M12.6057 28.8002C13.0475 28.8002 13.4057 28.442 13.4057 28.0002C13.4057 27.5584 13.0475 27.2002 12.6057 27.2002C12.1638 27.2002 11.8057 27.5584 11.8057 28.0002C11.8057 28.442 12.1638 28.8002 12.6057 28.8002Z" fill="#790F3E"/>
<path d="M11.0051 32.8002C11.4469 32.8002 11.8051 32.442 11.8051 32.0002C11.8051 31.5584 11.4469 31.2002 11.0051 31.2002C10.5633 31.2002 10.2051 31.5584 10.2051 32.0002C10.2051 32.442 10.5633 32.8002 11.0051 32.8002Z" fill="#790F3E"/>
<path d="M35.0051 24.8002C35.4469 24.8002 35.8051 24.442 35.8051 24.0002C35.8051 23.5584 35.4469 23.2002 35.0051 23.2002C34.5633 23.2002 34.2051 23.5584 34.2051 24.0002C34.2051 24.442 34.5633 24.8002 35.0051 24.8002Z" fill="#790F3E"/>
<path d="M29.4055 32.8002C29.8473 32.8002 30.2055 32.442 30.2055 32.0002C30.2055 31.5584 29.8473 31.2002 29.4055 31.2002C28.9636 31.2002 28.6055 31.5584 28.6055 32.0002C28.6055 32.442 28.9636 32.8002 29.4055 32.8002Z" fill="#790F3E"/>
<path d="M36.6057 28.8002C37.0475 28.8002 37.4057 28.442 37.4057 28.0002C37.4057 27.5584 37.0475 27.2002 36.6057 27.2002C36.1638 27.2002 35.8057 27.5584 35.8057 28.0002C35.8057 28.442 36.1638 28.8002 36.6057 28.8002Z" fill="#790F3E"/>
<path d="M38.2053 32.8002C38.6471 32.8002 39.0053 32.442 39.0053 32.0002C39.0053 31.5584 38.6471 31.2002 38.2053 31.2002C37.7634 31.2002 37.4053 31.5584 37.4053 32.0002C37.4053 32.442 37.7634 32.8002 38.2053 32.8002Z" fill="#790F3E"/>
<path fill-rule="evenodd" clip-rule="evenodd" d="M15.8057 16.4C15.8087 18.8288 17.7769 20.7969 20.2057 20.8C21.458 20.803 22.6508 20.2663 23.4793 19.3272C23.6874 19.1158 23.7615 18.8066 23.6717 18.5239C23.582 18.2411 23.3431 18.0312 23.0512 17.9786C22.7592 17.926 22.4621 18.0392 22.2793 18.2728C21.7537 18.8659 20.9981 19.2038 20.2057 19.2C18.6593 19.2 17.4057 17.9464 17.4057 16.4C17.4057 14.8536 18.6593 13.6 20.2057 13.6C20.997 13.5971 21.7513 13.9349 22.2761 14.5272C22.4589 14.7608 22.756 14.874 23.048 14.8214C23.3399 14.7688 23.5788 14.5589 23.6685 14.2761C23.7583 13.9934 23.6842 13.6842 23.4761 13.4728C22.6484 12.5345 21.4568 11.9979 20.2057 12C17.7769 12.0031 15.8087 13.9712 15.8057 16.4Z" fill="#790F3E"/>
<path fill-rule="evenodd" clip-rule="evenodd" d="M31.8053 20.0694C31.8411 20.4842 32.189 20.8021 32.6053 20.8006H32.6773C32.8901 20.7824 33.0868 20.6798 33.2235 20.5157C33.3603 20.3516 33.4257 20.1396 33.4053 19.927L32.7653 12.727C32.7342 12.3742 32.4749 12.0837 32.1278 12.0132C31.7806 11.9426 31.4285 12.1087 31.2621 12.4214L29.4053 15.8998L27.5517 12.4214C27.3853 12.1087 27.0331 11.9426 26.686 12.0132C26.3389 12.0837 26.0795 12.3742 26.0485 12.727L25.4085 19.927C25.3692 20.3671 25.694 20.7557 26.1341 20.795C26.3467 20.8186 26.5598 20.7546 26.7242 20.6177C26.8886 20.4808 26.9901 20.2828 27.0053 20.0694L27.4053 15.5478L28.7005 17.9774C28.8532 18.2203 29.12 18.3677 29.4069 18.3677C29.6938 18.3677 29.9606 18.2203 30.1133 17.9774L31.4053 15.5478L31.8053 20.0694Z" fill="#790F3E"/>
<path d="M23.5535 32.4052C23.8412 32.6572 24.211 32.7954 24.5935 32.794C25.002 32.7915 25.3956 32.6402 25.7007 32.3684L29.6615 28.4052C30.164 27.9661 30.3412 27.2612 30.106 26.6366C29.8709 26.0121 29.2728 25.5991 28.6055 25.6004H27.8055V24.0004C27.8055 23.1167 27.0891 22.4004 26.2055 22.4004H23.0055C22.1218 22.4004 21.4055 23.1167 21.4055 24.0004V25.6004H20.6055C19.9371 25.5971 19.3383 26.013 19.1079 26.6404C18.8709 27.2457 19.0323 27.9345 19.5135 28.3716L23.5135 32.3716C23.5261 32.3836 23.5395 32.3948 23.5535 32.4052ZM22.2055 27.2004C22.6473 27.2004 23.0055 26.8422 23.0055 26.4004V24.0004H26.2055V26.4004C26.2055 26.8422 26.5636 27.2004 27.0055 27.2004L28.5663 27.2372L24.6055 31.2004L20.6055 27.2004H22.2055Z" fill="#790F3E"/>
<path d="M25.6579 0.395449C25.0552 -0.130514 24.1566 -0.130514 23.5539 0.395449C23.5398 0.406889 23.5265 0.419179 23.5139 0.432249L19.5531 4.39545C19.051 4.83419 18.8737 5.53829 19.108 6.16252C19.3423 6.78675 19.9391 7.20024 20.6059 7.20025H21.4059V8.80025C21.4059 9.68391 22.1222 10.4002 23.0059 10.4002H26.2059C27.0896 10.4002 27.8059 9.68391 27.8059 8.80025V7.20025H28.6059C29.2743 7.20349 29.8731 6.78766 30.1035 6.16025C30.3404 5.55491 30.1791 4.86615 29.6979 4.42905L25.6579 0.395449ZM27.0059 5.60025C26.5641 5.60025 26.2059 5.95842 26.2059 6.40025V8.80025H23.0059V6.40025C23.0059 5.95842 22.6477 5.60025 22.2059 5.60025L20.6451 5.56345L24.6059 1.60025L28.6059 5.60025H27.0059Z" fill="#790F3E"/>
</g>
<defs>
<clipPath id="clip0_201_3243">
<rect width="48" height="48" fill="white" transform="translate(0.802734)"/>
</clipPath>
</defs>
</svg>
