<svg width="49" height="48" viewBox="0 0 49 48" fill="none" xmlns="http://www.w3.org/2000/svg">
<g clip-path="url(#clip0_201_3317)">
<path d="M31.0055 14.3998V33.5998C31.007 33.6533 31.0044 33.7068 30.9975 33.7598C30.9132 34.5763 30.2263 35.1976 29.4055 35.1998H19.8055C18.9846 35.1976 18.2978 34.5763 18.2135 33.7598C18.2066 33.7068 18.204 33.6533 18.2055 33.5998V14.3998C18.2081 13.5172 18.9229 12.8024 19.8055 12.7998H29.4055C30.2881 12.8024 31.0029 13.5172 31.0055 14.3998Z" fill="#FFF1F7"/>
<path d="M29.4049 12.7998H27.0049C27.8874 12.8024 28.6022 13.5172 28.6049 14.3998V33.5998C28.6064 33.6533 28.6037 33.7068 28.5969 33.7598C28.5126 34.5763 27.8257 35.1976 27.0049 35.1998H29.4049C30.2257 35.1976 30.9126 34.5763 30.9969 33.7598C31.0037 33.7068 31.0064 33.6533 31.0049 33.5998V14.3998C31.0022 13.5172 30.2874 12.8024 29.4049 12.7998Z" fill="#FF90C1"/>
<path d="M18.1253 33.3122V33.3202C16.8533 37.4162 1.40527 43.2402 1.40527 35.1122V29.3042C1.57327 39.3602 12.5893 34.6402 16.6853 29.2402C17.3951 30.505 17.8822 31.8824 18.1253 33.3122Z" fill="#FFB0D3"/>
<path d="M18.125 14.6876V14.6796C18.1789 14.3221 18.2056 13.9611 18.205 13.5996" fill="#FFF1F7"/>
<path d="M18.2053 15.1999V22.3999C18.2053 16.2879 1.55727 6.29592 1.40527 18.7599V12.8879C1.40527 4.40792 18.2053 11.1119 18.2053 15.1999Z" fill="#FFF1F7"/>
<path d="M5.07031 8.88013C9.88551 9.42333 15.8055 12.7729 15.8055 15.2001V17.7209C17.2511 19.2633 18.2055 20.9417 18.2055 22.4001V15.2001C18.2055 12.3449 10.0127 8.21933 5.07031 8.88013Z" fill="#FF90C1"/>
<path d="M18.2049 34.3996C18.206 34.1885 18.1953 33.9775 18.1729 33.7676L18.2049 34.3996Z" fill="#FFF1F7"/>
<path d="M16.6853 29.2395C12.5893 34.6395 1.57327 39.3595 1.40527 29.3035V29.0715C1.41727 28.2773 1.47068 27.4842 1.56527 26.6955C2.77327 34.0395 10.5653 31.1995 15.0373 26.6875C15.6549 27.4921 16.2061 28.3455 16.6853 29.2395Z" fill="#790F3E"/>
<path d="M15.0374 26.688C10.5654 31.2 2.77343 34.04 1.56543 26.696V26.688C1.67043 25.7712 1.87978 24.8693 2.18943 24C4.02143 28.944 8.74143 27.528 12.5894 24C13.4868 24.8183 14.3064 25.7182 15.0374 26.688Z" fill="#FFB0D3"/>
<path d="M18.2133 33.7604L18.1733 33.7684C18.1648 33.6183 18.1488 33.4688 18.1253 33.3204V33.3124C17.8822 31.8825 17.3951 30.5052 16.6853 29.2404C16.2061 28.3464 15.6549 27.4929 15.0373 26.6884C14.3062 25.7186 13.4867 24.8187 12.5893 24.0004C8.74127 20.4724 4.02127 19.0564 2.18927 24.0004C1.87963 24.8697 1.67027 25.7715 1.56527 26.6884V26.6964C1.47068 27.485 1.41727 28.2781 1.40527 29.0724V23.1764C1.41764 22.5495 1.47108 21.9242 1.56527 21.3044V21.2964C3.28527 10.9044 18.2053 20.9444 18.2053 27.2004V33.6004C18.2037 33.6538 18.2064 33.7073 18.2133 33.7604Z" fill="#FFF1F7"/>
<path d="M18.2049 33.6004V27.2004C18.2049 22.5604 9.98492 15.834 5.04492 16.9268C9.86172 17.8004 15.8049 23.2516 15.8049 27.2004V27.7788C16.1249 28.2588 16.4225 28.7468 16.6849 29.2404C17.3947 30.5051 17.8818 31.8825 18.1249 33.3124V33.3204C18.1484 33.4688 18.1644 33.6183 18.1729 33.7684L18.2129 33.7604C18.2061 33.7073 18.2034 33.6538 18.2049 33.6004Z" fill="#FF90C1"/>
<path d="M18.2053 22.3997V27.1997C18.2053 20.9437 3.28527 10.9037 1.56527 21.2957V21.3037C1.47108 21.9236 1.41764 22.5489 1.40527 23.1757V18.7597C1.55727 6.29572 18.2053 16.2877 18.2053 22.3997Z" fill="#FF90C1"/>
<path d="M31.037 33.7676C31.0145 33.9775 31.0039 34.1885 31.005 34.3996L31.037 33.7676Z" fill="#FFF1F7"/>
<path d="M47.8049 18.7041C47.6049 6.32809 31.0049 16.2961 31.0049 22.4001V27.2001C31.0049 21.5841 43.0289 12.9201 46.7329 18.7281" fill="#FF90C1"/>
<path d="M47.8049 12.8879V18.7039C47.6049 6.32792 31.0049 16.2959 31.0049 22.3999V15.1999C31.0049 11.1119 47.8049 4.40792 47.8049 12.8879Z" fill="#FFF1F7"/>
<path d="M41.7402 8.88033C43.8738 9.16193 45.405 10.3315 45.405 12.8883V13.3723C46.8146 14.1619 47.7586 15.8203 47.805 18.7043V12.8883C47.805 9.44033 45.0322 8.50433 41.7402 8.88033Z" fill="#FF90C1"/>
<path d="M47.6449 26.688V26.696C46.4369 34.04 38.6449 31.2 34.1729 26.688C34.9039 25.7182 35.7234 24.8183 36.6209 24C40.4689 27.528 45.1889 28.944 47.0209 24C47.3305 24.8693 47.5399 25.7712 47.6449 26.688Z" fill="#FFB0D3"/>
<path d="M47.8051 23.1761V29.2401C47.8012 28.3897 47.7478 27.5403 47.6451 26.6961V26.6881C47.5401 25.7713 47.3307 24.8694 47.0211 24.0001C45.1891 19.0561 40.4691 20.4721 36.6211 24.0001C35.7237 24.8185 34.9041 25.7183 34.1731 26.6881C33.5554 27.4927 33.0043 28.3462 32.5251 29.2401C31.8153 30.5049 31.3282 31.8823 31.0851 33.3121V33.3201C31.0616 33.4686 31.0456 33.6181 31.0371 33.7681L30.9971 33.7601C31.0039 33.7071 31.0066 33.6536 31.0051 33.6001V27.2001C31.0051 21.5841 43.0291 12.9201 46.7331 18.7281C47.207 19.5139 47.5172 20.3874 47.6451 21.2961V21.3041C47.7393 21.924 47.7927 22.5493 47.8051 23.1761Z" fill="#FFF1F7"/>
<path d="M47.6453 21.304V21.296C47.5174 20.3873 47.2072 19.5138 46.7333 18.728C45.6333 17.0032 43.7981 16.5616 41.7637 16.9304C42.831 17.1505 43.7605 17.8008 44.3333 18.728C44.8072 19.5138 45.1174 20.3873 45.2453 21.296V21.304C45.2549 21.3672 45.2605 21.4384 45.2693 21.5032C46.0908 22.1405 46.7014 23.0106 47.0213 24C47.3309 24.8693 47.5403 25.7711 47.6453 26.688V26.696C47.748 27.5401 47.8014 28.3896 47.8053 29.24V23.176C47.7929 22.5491 47.7395 21.9238 47.6453 21.304Z" fill="#FF90C1"/>
<path d="M47.8054 29.2395V29.3035C47.6374 39.3595 36.6214 34.6395 32.5254 29.2395C33.0046 28.3455 33.5557 27.4921 34.1734 26.6875C38.6454 31.1995 46.4374 34.0395 47.6454 26.6955C47.7481 27.5397 47.8016 28.3891 47.8054 29.2395Z" fill="#790F3E"/>
<path d="M47.805 29.3042V35.1122C47.805 43.2402 32.357 37.4162 31.085 33.3202V33.3122C31.3281 31.8824 31.8152 30.505 32.525 29.2402C36.621 34.6402 47.637 39.3602 47.805 29.3042Z" fill="#FFB0D3"/>
<path d="M3.80527 35.1125V26.3869C3.0562 25.7562 2.49679 24.9301 2.18927 24.0005C2.49679 23.0708 3.0562 22.2447 3.80527 21.6141V12.8885C3.80527 10.3405 5.32527 9.17167 7.44847 8.88207C6.65862 8.78594 5.86006 8.78541 5.07007 8.88047C2.93727 9.16207 1.40527 10.3317 1.40527 12.8885V35.1125C1.40527 38.5389 4.15247 39.4805 7.42367 39.1229C5.31247 38.8285 3.80527 37.6509 3.80527 35.1125Z" fill="#FCFCFD"/>
<path d="M12.7139 9.492L12.0939 10.9664C10.2326 10.1498 8.23575 9.68642 6.20508 9.6V8C8.44903 8.08491 10.657 8.59104 12.7139 9.492Z" fill="#FCFCFD"/>
<path d="M9.55834 8.44698C9.34829 8.39265 9.12513 8.42734 8.94148 8.54286C8.75782 8.65838 8.62993 8.84452 8.58794 9.05738C8.49201 9.48487 8.75779 9.91 9.18411 10.011C9.61044 10.112 10.0387 9.85128 10.1447 9.42618C10.2021 9.21833 10.1719 8.99607 10.0611 8.81109C9.95031 8.62611 9.76864 8.49453 9.55834 8.44698Z" fill="#790F3E"/>
<path d="M46.9126 9.08744C45.7723 8.31064 44.4089 7.92877 43.031 8.00024C39.111 8.00024 33.5726 10.3162 31.271 12.9114C30.8205 12.3393 30.1336 12.0038 29.4054 12.0002H19.8054C19.1075 12.0027 18.4457 12.3105 17.9942 12.8426C17.9643 12.8472 17.9347 12.8533 17.9054 12.861L17.5854 12.5106L17.1854 12.1506C16.919 11.9148 16.6402 11.6935 16.3502 11.4874C15.2186 10.688 14.0005 10.0187 12.719 9.49224C12.5211 9.40545 12.2962 9.40376 12.097 9.48756C11.8978 9.57135 11.7418 9.73328 11.6654 9.93544C11.5124 10.3398 11.703 10.7932 12.099 10.9666C13.2657 11.4468 14.3748 12.0565 15.4054 12.7842C15.8991 13.1275 16.3514 13.5267 16.7534 13.9738C17.0946 14.3037 17.3228 14.7329 17.4054 15.2002V18.445C14.9254 15.0874 10.039 12.0002 6.17981 12.0002C4.67994 11.9387 3.2281 12.5358 2.20541 13.6346V12.8882C2.14974 12.0451 2.43841 11.2155 3.00541 10.589C3.90257 9.87332 5.03571 9.52044 6.18061 9.60024H6.20541C6.64724 9.60024 7.00541 9.24207 7.00541 8.80024C7.00541 8.35841 6.64724 8.00024 6.20541 8.00024H6.17901C4.6072 7.88815 3.0563 8.41251 1.87501 9.45544C1.00074 10.378 0.542006 11.618 0.605407 12.8874V35.1122C0.605407 37.7882 2.10221 39.489 4.81981 39.901C5.26517 39.9683 5.715 40.0014 6.16541 40.0002C10.223 40.0002 15.6374 37.7026 17.915 35.145C17.9398 35.1546 17.9686 35.1538 17.995 35.161C18.4469 35.6918 19.1083 35.9983 19.8054 36.0002H29.4054C30.1033 35.9978 30.7651 35.69 31.2166 35.1578C31.2422 35.1506 31.271 35.1514 31.2966 35.1418C33.5734 37.6994 38.9878 40.0002 43.0454 40.0002C43.4957 40.0021 43.9455 39.97 44.391 39.9042C47.1086 39.489 48.6054 37.7882 48.6054 35.1122V12.8882C48.698 11.4205 48.0655 10.0005 46.9126 9.08744ZM31.8054 22.4002C31.8054 18.8642 38.5206 13.6002 43.031 13.6002C44.084 13.5368 45.1104 13.9459 45.831 14.7162C46.4948 15.5663 46.8823 16.5993 46.9414 17.6762C45.953 16.5625 44.5192 15.9479 43.031 16.0002C39.1718 16.0002 34.2854 19.3242 31.8054 22.9402V22.4002ZM36.655 25.0858C38.8822 26.9722 41.1302 28.0002 43.0478 28.0002C43.4341 28.0018 43.8193 27.9572 44.195 27.8674C45.2212 27.6066 46.1257 26.999 46.755 26.1474C46.7838 26.3194 46.8142 26.4898 46.835 26.6706C46.4958 28.5962 45.6494 29.7906 44.3142 30.2186C42.0558 30.9386 38.2654 29.4098 35.2662 26.6322C35.7025 26.0934 36.166 25.5773 36.655 25.0858ZM37.8534 24.0002C39.5942 22.553 41.447 21.6002 43.031 21.6002C44.163 21.5797 45.212 22.1918 45.751 23.1874C45.9066 23.4476 46.042 23.7193 46.1558 24.0002C45.8055 25.1085 44.9317 25.973 43.8198 26.3114C42.2518 26.6898 40.0622 25.8258 37.8534 24.0002ZM31.8054 27.2002C31.8054 23.3426 38.5206 17.6002 43.031 17.6002C44.094 17.545 45.1212 17.992 45.8054 18.8074C46.4932 19.7737 46.8864 20.9185 46.9374 22.1034C46.0834 20.7774 44.6081 19.9831 43.031 20.0002C40.8358 20.0002 38.3022 21.3834 36.071 23.4314C36.059 23.4426 36.043 23.4474 36.0318 23.4594C36.0206 23.4714 36.0254 23.473 36.0198 23.4794C35.1452 24.2908 34.34 25.1739 33.6126 26.1194C33.6086 26.1234 33.6078 26.1282 33.6046 26.1314C32.9474 26.9812 32.3589 27.8819 31.8446 28.825C31.8358 28.8386 31.8294 28.8522 31.8214 28.8666L31.8038 28.8986L31.8054 27.2002ZM34.2982 27.9098C36.7302 30.1162 40.0918 32.0002 43.0246 32.0002C43.6263 32.0051 44.2252 31.9166 44.7998 31.7378C45.6279 31.4759 46.3673 30.9897 46.9358 30.333C46.7046 32.4202 45.8718 33.7202 44.4422 34.1914C41.3534 35.209 36.1798 32.3842 33.495 29.1602C33.7406 28.7394 34.0126 28.3202 34.2982 27.9098ZM43.031 9.60024C44.059 9.53871 45.0799 9.80571 45.9462 10.3626C46.6933 10.9786 47.0894 11.9228 47.0054 12.8874V13.6338C45.9826 12.5353 44.5308 11.9385 43.031 12.0002C39.1718 12.0002 34.2854 15.0874 31.8054 18.445V15.2002C31.8054 13.3498 37.9798 9.60024 43.031 9.60024ZM2.45901 26.145C3.08834 26.9966 3.99279 27.6042 5.01901 27.865C5.39363 27.9553 5.77766 28.0007 6.16301 28.0002C8.08301 28.0002 10.3286 26.9746 12.5558 25.0882C13.0447 25.5789 13.5083 26.0943 13.9446 26.6322C10.947 29.409 7.15821 30.9394 4.89661 30.2186C3.56221 29.7922 2.71581 28.5978 2.37501 26.6738C2.39901 26.489 2.42941 26.3202 2.45901 26.145ZM5.39101 26.3098C4.27948 25.9717 3.40577 25.1078 3.05501 24.0002C3.16919 23.7198 3.30479 23.4486 3.46061 23.189C3.99904 22.1931 5.04778 21.5803 6.17981 21.6002C7.76381 21.6002 9.61981 22.5554 11.3574 24.0002C9.14861 25.8258 6.95821 26.689 5.39101 26.3098ZM4.41101 31.7402C4.98574 31.9182 5.58459 32.0059 6.18621 32.0002C9.11901 32.0002 12.4806 30.1138 14.9126 27.9074C15.1982 28.3194 15.4726 28.737 15.7126 29.1602C13.0318 32.3858 7.85661 35.2098 4.76541 34.1938C3.33341 33.7218 2.50061 32.4194 2.27101 30.3346C2.84055 30.9921 3.58136 31.4787 4.41101 31.7402ZM17.3878 28.8666C17.3798 28.8522 17.3734 28.8386 17.3646 28.825C16.8504 27.8819 16.2618 26.9812 15.6046 26.1314C15.6046 26.1314 15.6006 26.1234 15.5966 26.1194C14.8692 25.1739 14.064 24.2908 13.1894 23.4794C13.1838 23.473 13.183 23.4658 13.1774 23.4594C13.1718 23.453 13.1502 23.4426 13.1382 23.4314C10.9086 21.3834 8.37501 20.0002 6.17981 20.0002C4.60156 19.982 3.12479 20.7765 2.27021 22.1034C2.32213 20.9182 2.71644 19.7733 3.40541 18.8074C4.08957 17.992 5.11682 17.545 6.17981 17.6002C10.6902 17.6002 17.4054 23.3426 17.4054 27.2002V28.8986L17.3878 28.8666ZM3.38221 14.7202C4.10154 13.9491 5.12705 13.5385 6.17981 13.6002C10.6902 13.6002 17.4054 18.8642 17.4054 22.4002V22.9402C14.9254 19.3242 10.039 16.0002 6.17981 16.0002C4.69183 15.9497 3.25889 16.5657 2.27181 17.6802C2.33094 16.6033 2.71844 15.5703 3.38221 14.7202ZM5.06221 38.3202C3.13901 38.0282 2.20541 36.9794 2.20541 35.1122V34.369C2.76167 34.9915 3.47305 35.4552 4.26701 35.713C4.8884 35.9107 5.53739 36.0076 6.18941 36.0002C9.64381 36.0002 13.8526 33.6002 16.4942 30.705C16.863 31.5117 17.1316 32.3604 17.2942 33.2322C16.3454 35.4866 9.54861 38.9978 5.05901 38.3202H5.06221ZM29.4054 34.4002H19.8054C19.3636 34.4002 19.0054 34.0421 19.0054 33.6002V14.4002C19.0054 13.9584 19.3636 13.6002 19.8054 13.6002H29.4054C29.8472 13.6002 30.2054 13.9584 30.2054 14.4002V33.6002C30.2054 34.0421 29.8472 34.4002 29.4054 34.4002ZM44.1518 38.3202C39.6646 39.0034 32.8718 35.4914 31.9182 33.2386C32.0807 32.3657 32.3493 31.5159 32.7182 30.7082C35.359 33.6002 39.5654 36.0002 43.0214 36.0002C43.6728 36.0066 44.3209 35.9089 44.9414 35.7106C45.7361 35.4537 46.4483 34.9904 47.0054 34.3682V35.1122C47.0054 36.9794 46.0718 38.0282 44.1518 38.3202Z" fill="#790F3E"/>
<path d="M27.8055 21.6006H21.4055C20.9636 21.6006 20.6055 21.9588 20.6055 22.4006C20.6055 22.8424 20.9636 23.2006 21.4055 23.2006H27.8055C28.2473 23.2006 28.6055 22.8424 28.6055 22.4006C28.6055 21.9588 28.2473 21.6006 27.8055 21.6006Z" fill="#790F3E"/>
<path d="M27.8055 24.7998H21.4055C20.9636 24.7998 20.6055 25.158 20.6055 25.5998C20.6055 26.0416 20.9636 26.3998 21.4055 26.3998H27.8055C28.2473 26.3998 28.6055 26.0416 28.6055 25.5998C28.6055 25.158 28.2473 24.7998 27.8055 24.7998Z" fill="#790F3E"/>
</g>
<defs>
<clipPath id="clip0_201_3317">
<rect width="48" height="48" fill="white" transform="translate(0.802734)"/>
</clipPath>
</defs>
</svg>
