<svg width="24" height="24" viewBox="0 0 24 24" fill="none" xmlns="http://www.w3.org/2000/svg">
<path d="M18.2435 22.6414C13.7621 23.1195 9.24265 23.1195 4.76132 22.6414C3.89109 22.5495 3.07865 22.1621 2.45945 21.5438C1.84024 20.9254 1.45169 20.1136 1.35858 19.2435C0.880475 14.7621 0.880475 10.2426 1.35858 5.76132C1.45047 4.89109 1.83788 4.07865 2.45622 3.45945C3.07455 2.84024 3.88645 2.45169 4.75655 2.35858C9.23788 1.88047 13.7573 1.88047 18.2387 2.35858C19.1089 2.45047 19.9213 2.83788 20.5406 3.45622C21.1598 4.07455 21.5483 4.88645 21.6414 5.75655C22.1195 10.2379 22.1195 14.7573 21.6414 19.2387C21.5495 20.1089 21.1621 20.9213 20.5438 21.5406C19.9254 22.1598 19.1136 22.5483 18.2435 22.6414Z" fill="#790F3E"/>
<path d="M10.3512 19C9.19722 19 8.09046 18.5293 7.27445 17.6916C6.45843 16.8538 6 15.7175 6 14.5327C6 13.3479 6.45843 12.2117 7.27445 11.3739C8.09046 10.5361 9.19722 10.0655 10.3512 10.0655H11.4136V12.2456H10.3512C9.90991 12.2456 9.47849 12.38 9.11154 12.6317C8.74459 12.8835 8.45858 13.2412 8.28969 13.6599C8.1208 14.0785 8.07661 14.5391 8.16271 14.9835C8.24881 15.4279 8.46133 15.8361 8.7734 16.1565C9.08547 16.4769 9.48306 16.695 9.91591 16.7834C10.3488 16.8718 10.7974 16.8265 11.2052 16.6531C11.6129 16.4797 11.9614 16.186 12.2066 15.8093C12.4518 15.4326 12.5826 14.9896 12.5826 14.5365V5H14.7062V6.08945C14.7062 6.69704 14.9413 7.27974 15.3598 7.70937C15.7782 8.139 16.3458 8.38036 16.9376 8.38036H18V10.5567H16.9302C16.1437 10.5579 15.372 10.3378 14.6988 9.92036V14.5327C14.6978 15.7166 14.2395 16.8517 13.4245 17.6891C12.6095 18.5265 11.5043 18.998 10.3512 19Z" fill="#FCFCFD"/>
</svg>
