<svg width="24" height="24" viewBox="0 0 24 24" fill="none" xmlns="http://www.w3.org/2000/svg">
<path d="M10.9223 9.21406L14.9598 11.5085L10.9223 13.8029V9.21406ZM22 4.03571V18.9643C22 20.0882 21.0882 21 19.9643 21H5.03571C3.91183 21 3 20.0882 3 18.9643V4.03571C3 2.91183 3.91183 2 5.03571 2H19.9643C21.0882 2 22 2.91183 22 4.03571ZM20.2188 11.5127C20.2188 11.5127 20.2188 8.98504 19.8964 7.7721C19.7183 7.10201 19.1967 6.57612 18.5308 6.39799C17.3306 6.07143 12.5 6.07143 12.5 6.07143C12.5 6.07143 7.66942 6.07143 6.4692 6.39799C5.80335 6.57612 5.2817 7.10201 5.10357 7.7721C4.78125 8.9808 4.78125 11.5127 4.78125 11.5127C4.78125 11.5127 4.78125 14.0404 5.10357 15.2533C5.2817 15.9234 5.80335 16.4281 6.4692 16.6062C7.66942 16.9286 12.5 16.9286 12.5 16.9286C12.5 16.9286 17.3306 16.9286 18.5308 16.602C19.1967 16.4239 19.7183 15.9192 19.8964 15.2491C20.2188 14.0404 20.2188 11.5127 20.2188 11.5127Z" fill="#790F3E"/>
</svg>
